<svg version="1.1" viewBox="0 0 512 512" xmlns="http://www.w3.org/2000/svg">
 <g>
  <circle cx="256" cy="256" r="256" fill="#6b8c75" stroke-width="2.9"/>
  <g stroke-width="3">
   <path d="m256 0a256 256 0 0 0-256 256 256 256 0 0 0 256 256 256 256 0 0 0 256-256 256 256 0 0 0-256-256zm0 38a218 218 0 0 1 218 218 218 218 0 0 1-83.8 171c-1.36-5.48-2.79-11.1-3.98-15.3-3.14-11-11.1-17.5-11.2-18.7-0.0684-1.2 8.99-7.08 15.6-13.1 6.57-6.03 8.58-13.1 10.1-13.6 2.97-0.874 11.3-2.24 13.8-11.9 2.48-9.61-4.25-13.4-5.54-14.5s5.36-12.6 4.97-20.5 0.796-23.2-4-35.9c-4.8-12.7-15.6-28.9-23.3-35.3s-12-5.58-15.9-7.92c-3.89-2.34-17.1-16.4-57.2-8.05-40.1 8.36-59.4 48-59.7 50.4-0.3 2.38 0.502 9.07 0 11.6s-6.92 17.3-6.72 24.1 10.9 18.6 9.95 20.4-11.3 10.4-5.17 20.3 13.9 7.89 14.6 7.28-2.65-10.6-2.65-10.6 7.85 17.8 17.2 25.8 19.8 14.4 34.9 17.5 28.4 1.58 28.2 2.76c-0.14 1.18-15.9 1.55-28.2-0.414-12.3-1.96-23.7-6.94-23.7-6.94s-11.1 12.6-14.7 30.3c-1.9 9.34-2.86 23.8-3.37 35.7-9.18-35.2-30.2-116-31.9-117-2.04-1.78-33.8-10.5-34.6-9.42-0.791 1.04 9.6 14 18 29 8.37 15 13.7 33.8 13.7 33.8l-17.3 18s20.3 18.5 20.1 19.7c-0.16 1.12-2.6 5.39-3.04 5.23-0.436-0.162 0.109-5.45-0.00977-5.98-0.119-0.532-20.1-17.1-20.4-19s17.7-15.2 17.8-19c0.0364-3.83-6.61-19.4-16-37.3-9.41-17.9-17.4-26.2-18.1-27.1-0.648-0.876 0.0833-6.7 0.703-7.49 0.62-0.788 8.86-2.55 13.4-6.77 4.56-4.22 8.2-9.58 9.03-9.97 0.838-0.388 14.7-3.85 15-4.71s-8.89-10.6-8.94-11.4c-0.0489-0.807 1.82-4.39 2.47-4.63s14.2 0.082 14.7-0.752c0.508-0.834-6.59-17.4-6.29-18.1 0.299-0.787 6.77-1.85 10.9-3.63s13.6-6.3 13.7-7.36c0.0426-1.06-24.5-15.1-23.9-16.5 0.609-1.47 13.9-4.87 20.6-8.2 6.68-3.33 19.4-9.59 19.3-11.7-0.0914-2.16-29.4-12.3-29.5-13.4-0.0623-1.13 28.6-26.2 28.3-27.2-0.29-1.02-36.1-4.77-36.7-6s21.7-37 20.9-37.8c-0.85-0.841-34.6 12.3-35.7 11.8s-3.56-12.6-4.41-20.3 0.811-24.9-0.115-25.8-16.5 8.56-23 13.6c-6.5 5.01-14.9 15.9-16 15.9-1.16 4e-3 -5.96-7.99-11.2-14.9-5.26-6.89-16.1-18.6-17.2-18.3-1.08 0.326-0.898 16.8-2.65 23.8s-6.44 18-7.47 18.4-10.4-5.42-16.3-7.47c-5.89-2.05-18.4-5.46-18.9-4.62s6.29 13.5 8.1 19.6c1.81 6.16 3.98 16.1 3.1 17-0.883 0.922-45.5 2.44-45.9 4.02-0.403 1.58 12.4 11.1 16.7 17 4.33 5.94 10.7 15.7 9.41 17.9-1.26 2.25-31.1 20.9-30.8 22.5 0.315 1.58 15.8 3.18 21.7 6.78 5.93 3.6 13.3 11.9 13.3 13.4-9e-3 1.46-22 21.2-21.6 22.5s27.6 8.19 28 9.43c0.391 1.24-6.56 23.7-5.99 24.6s22-2.47 22.8-1.54c0.772 0.923 0.709 16.2 1.48 16.8 0.773 0.579 11.2-3.98 11.3-5.2s-9.61-12.7-14.7-31.4c-5.04-18.7-5.12-33.3-4.37-33.1s1.58 16.2 5.9 30.3c4.32 14.1 7.5 23.8 13.9 32 6.38 8.23 21.6 12.3 22.3 13.6s0.739 4.91 0 6.91-39.8 11-43.1 14.4c-2.38 2.42-13.4 43.2-19.7 67.2a218 218 0 0 1-66.8-157 218 218 0 0 1 218-218zm-96.3 305c0.0613-0.0103 0.118-0.00296 0.168 0.0234 1.59 0.838-6.63 19.1-9.84 27.4-3.21 8.34-9.52 23.6-9.01 25.9 0.516 2.32 18.6 15.8 18.6 18.1-0.0115 2.3-7.34 8.01-7.88 7.53s4.19-5.35 4.16-6.85-17.7-16.2-17.8-18.1c-0.105-1.92 5.54-17.2 9.04-26.9 3.39-9.38 10.7-26.8 12.6-27.1zm6.51 7.68c1.32 0.0424 0.539 13.4 0.254 20.3-0.285 6.94-0.78 22.7-2.45 22.2-1.67-0.493-1.09-16.2-0.748-23.2 0.337-6.95 1.62-19.4 2.95-19.3zm41.3 5.56c1.65-0.207 3.77 16.2 4.31 21.6 0.541 5.42 1.89 24.8 0.248 24.8-1.65-4e-3 -3.06-20.5-3.61-25.3-0.548-4.78-2.59-20.9-0.947-21.1z" fill="#272e33"/>
   <path d="m320 298c-0.0566 0.00254-0.108 0.0128-0.152 0.0332-2.86 1.3-0.686 8.69-12.8 12.6-12.1 3.94-27.9 2.13-31.3 4.03-3.35 1.89 1.6 32.8 31.8 28.7 16.9-2.26 22.5-15.5 22-26.5-0.543-10.7-7.82-19-9.58-19zm29.4 0.676c-1.76 0.0251-8.53 8.83-8.44 19.5 0.091 11 6.52 23.9 23.5 25.1 30.4 2.27 33.5-28.9 30.1-30.6-3.45-1.69-19.1 1.05-31.4-2.17s-10.6-10.7-13.5-11.9c-0.0458-0.0177-0.0977-0.0262-0.154-0.0254z" fill="#9fa268"/>
   <path d="m158 196c-0.352-0.00248-0.71 0.00228-1.07 0.0137-23.3 0.729-20.5 28.3-17.6 29.9 2.83 1.57 13.1-1.89 18.9-2.03 5.79-0.137 14.7 2.64 17.5 1.1 2.83-1.52 4.41-28.8-17.8-28.9zm42.1 8.29c-3.8-0.0238-7.37 0.506-9.67 2.16-4.61 3.3-3.29 14.2-2.38 15.7 0.91 1.42 13.2 0.377 19.6 1.08 6.35 0.707 16.2 4.83 18.4 3.03s2.14-10.5 1.39-12.3c-0.757-1.82-9.85-7.34-16.3-8.46-3.22-0.562-7.24-1.14-11-1.16z" fill="#9fa268"/>
  </g>
 </g>
</svg>
