<?xml version="1.0" encoding="UTF-8" standalone="no"?>
<!-- Created with Inkscape (http://www.inkscape.org/) -->

<svg
   width="512"
   height="512"
   viewBox="0 0 512 512"
   version="1.1"
   id="svg5"
   xml:space="preserve"
   inkscape:version="1.2.2 (b0a8486541, 2022-12-01)"
   sodipodi:docname="logo_original.svg"
   xmlns:inkscape="http://www.inkscape.org/namespaces/inkscape"
   xmlns:sodipodi="http://sodipodi.sourceforge.net/DTD/sodipodi-0.dtd"
   xmlns="http://www.w3.org/2000/svg"
   xmlns:svg="http://www.w3.org/2000/svg"><sodipodi:namedview
     id="namedview7"
     pagecolor="#505050"
     bordercolor="#eeeeee"
     borderopacity="1"
     inkscape:showpageshadow="0"
     inkscape:pageopacity="0"
     inkscape:pagecheckerboard="0"
     inkscape:deskcolor="#505050"
     inkscape:document-units="px"
     showgrid="true"
     inkscape:zoom="0.69664703"
     inkscape:cx="-124.8839"
     inkscape:cy="242.59057"
     inkscape:window-width="1920"
     inkscape:window-height="1011"
     inkscape:window-x="0"
     inkscape:window-y="0"
     inkscape:window-maximized="1"
     inkscape:current-layer="svg5"><inkscape:grid
       type="xygrid"
       id="grid2364"
       spacingx="128"
       spacingy="128"
       empspacing="0" /></sodipodi:namedview><defs
     id="defs2" /><circle
     style="display:inline;opacity:1;fill:#6b8c75;fill-opacity:1;stroke-width:2.89754"
     id="circle2366"
     cx="256"
     cy="256"
     r="256"
     sodipodi:insensitive="true" /><path
     id="path2424"
     style="display:inline;opacity:1;fill:#272e33;fill-opacity:1;stroke-width:3"
     d="M 256 0 A 256 256 0 0 0 0 256 A 256 256 0 0 0 256 512 A 256 256 0 0 0 512 256 A 256 256 0 0 0 256 0 z M 256 38 A 218 218 0 0 1 474 256 A 218 218 0 0 1 390.1582 427.22266 C 388.79758 421.7435 387.36675 416.10574 386.17773 411.93359 C 383.04126 400.92801 375.04106 394.47448 374.97266 393.27539 C 374.90429 392.0763 383.96437 386.19281 390.53516 380.16602 C 397.10465 374.14039 399.11936 367.02671 400.60352 366.58984 C 403.57182 365.71611 411.93909 364.34924 414.42188 354.73438 C 416.90466 345.11951 410.17076 341.35782 408.88672 340.23828 C 407.60268 339.11874 414.25037 327.64663 413.85352 319.77539 C 413.45667 311.90415 414.64985 296.61833 409.85352 283.91797 C 405.05718 271.21761 394.22999 255.01849 386.50391 248.62891 C 378.77783 242.23933 374.51823 243.04707 370.63281 240.70898 C 366.74741 238.3709 353.48677 224.2991 313.41211 232.66211 C 273.33745 241.02511 254.04791 280.67073 253.74805 283.04688 C 253.44819 285.42302 254.2501 292.12114 253.74805 294.66797 C 253.246 297.2148 246.82419 311.98302 247.02734 318.79297 C 247.23049 325.60292 257.93668 337.34713 256.97656 339.20703 C 256.01644 341.06693 245.65247 349.58856 251.80664 359.48242 C 257.96081 369.37628 265.73143 367.37007 266.44531 366.75781 C 267.15919 366.14555 263.79688 356.18359 263.79688 356.18359 C 263.79688 356.18359 271.64384 373.97072 280.96484 381.95117 C 290.28584 389.93162 300.80856 396.32447 315.82031 399.46289 C 330.83206 402.60131 344.19896 401.04506 344.05859 402.22656 C 343.91822 403.40807 328.20136 403.77437 315.9082 401.8125 C 303.61505 399.85063 292.16602 394.86914 292.16602 394.86914 C 292.16602 394.86914 281.0835 407.4799 277.46875 425.21094 C 275.56561 434.54621 274.60704 449.04113 274.09961 460.91211 C 264.92119 425.72713 243.88669 345.37551 242.23242 343.93164 C 240.19626 342.15445 208.45083 333.47035 207.66016 334.51172 C 206.86948 335.55309 217.25919 348.48558 225.63086 363.46484 C 234.00252 378.44413 239.35156 397.26953 239.35156 397.26953 L 222.0957 415.22266 C 222.0957 415.22266 242.38254 433.7648 242.22266 434.88086 C 242.06279 435.99692 239.62358 440.27145 239.1875 440.10938 C 238.75141 439.94728 239.29637 434.65893 239.17773 434.12695 C 239.05919 433.59497 219.10429 416.98347 218.80273 415.10156 C 218.50117 413.21965 236.52417 399.89635 236.56055 396.0625 C 236.59695 392.22864 229.95144 376.64625 220.54492 358.75586 C 211.13839 340.86547 203.13063 332.54158 202.48242 331.66602 C 201.83421 330.79042 202.56572 324.96788 203.18555 324.17969 C 203.8053 323.3915 212.04845 321.63168 216.60742 317.4082 C 221.16642 313.18476 224.8029 307.82957 225.64062 307.44141 C 226.47838 307.05325 240.31658 303.59575 240.66602 302.73633 C 241.01546 301.87691 231.7735 292.12715 231.72461 291.32031 C 231.67571 290.51347 233.54426 286.93145 234.19922 286.6875 C 234.85418 286.44355 248.34966 286.7695 248.85742 285.93555 C 249.36518 285.10158 242.26727 268.5838 242.56641 267.79688 C 242.86555 267.00992 249.33691 265.94852 253.46875 264.16211 C 257.60059 262.3757 267.08627 257.85895 267.12891 256.80078 C 267.17151 255.74261 242.59042 241.73244 243.19922 240.25977 C 243.80802 238.78706 257.0911 235.39235 263.76758 232.0625 C 270.44402 228.73265 283.19295 222.46958 283.10156 220.31445 C 283.01016 218.15936 253.65606 208.00326 253.59375 206.87695 C 253.53145 205.75064 282.15895 180.67311 281.86914 179.65234 C 281.57932 178.63157 245.8121 174.88385 245.12695 173.65039 C 244.4418 172.41693 266.83979 136.68896 265.99023 135.84766 C 265.14071 135.00636 231.34789 148.17738 230.31836 147.61523 C 229.28883 147.05308 226.75404 134.98734 225.91016 127.26953 C 225.06628 119.55172 226.72155 102.39954 225.79492 101.50391 C 224.86829 100.60828 209.31534 110.06217 202.8125 115.07031 C 196.30966 120.07849 187.91919 130.92187 186.76367 130.92578 C 185.60815 130.92978 180.80016 122.9319 175.54102 116.04297 C 170.28184 109.15404 159.39276 97.40664 158.31445 97.732422 C 157.23614 98.058205 157.41609 114.48677 155.66211 121.53125 C 153.90813 128.57573 149.21761 139.56471 148.1875 139.97852 C 147.15739 140.39233 137.75365 134.55534 131.86523 132.50781 C 125.97685 130.46028 113.48102 127.04661 112.96875 127.88281 C 112.45648 128.71901 119.25694 141.35658 121.06641 147.51953 C 122.87584 153.68252 125.04756 163.6155 124.16406 164.53711 C 123.28057 165.45872 78.628095 166.98056 78.224609 168.55859 C 77.821127 170.13666 90.631018 179.65244 94.964844 185.5957 C 99.298666 191.539 105.63862 201.26925 104.37891 203.52148 C 103.11916 205.77375 73.243092 224.4599 73.558594 226.03711 C 73.874092 227.61432 89.367084 229.21379 95.300781 232.81641 C 101.23447 236.41899 108.6088 244.74818 108.59961 246.21289 C 108.59061 247.6776 86.631512 267.39976 86.984375 268.74414 C 87.337238 270.08852 114.60266 276.92922 114.99414 278.17188 C 115.38562 279.4145 108.43491 301.90249 109.00781 302.72266 C 109.58071 303.54283 131.03293 300.25508 131.80469 301.17773 C 132.57645 302.10042 132.51412 317.39804 133.28711 317.97656 C 134.06009 318.55508 144.47194 313.99686 144.60352 312.78125 C 144.7351 311.56564 134.99074 300.11073 129.95312 281.39453 C 124.91555 262.67833 124.83388 248.0987 125.58789 248.32422 C 126.3419 248.54974 127.16756 264.51224 131.48828 278.59961 C 135.80904 292.68698 138.99279 302.40275 145.375 310.63477 C 151.75722 318.86675 166.92835 322.95685 167.6543 324.19336 C 168.38025 325.42987 168.39292 329.10635 167.6543 331.09961 C 166.91568 333.09287 127.89169 342.07458 124.52539 345.48633 C 122.14195 347.90192 111.16956 388.69554 104.84961 412.70898 A 218 218 0 0 1 38 256 A 218 218 0 0 1 256 38 z M 159.6875 343.48242 C 159.7488 343.47212 159.80564 343.47946 159.85547 343.50586 C 161.45006 344.34424 153.22399 362.58055 150.01562 370.92383 C 146.80727 379.26711 140.49214 394.51044 141.00781 396.83008 C 141.52349 399.14973 159.59158 412.6341 159.58008 414.93555 C 159.56858 417.23697 152.236 422.94894 151.69727 422.4668 C 151.15854 421.98466 155.88597 417.11707 155.85547 415.61914 C 155.82497 414.12121 138.19508 399.43791 138.08984 397.51367 C 137.98459 395.58942 143.63048 380.29685 147.125 370.61719 C 150.51031 361.24002 157.7863 343.80094 159.6875 343.48242 z M 166.20117 351.16016 C 167.5242 351.20256 166.7403 364.51463 166.45508 371.45312 C 166.16986 378.39166 165.67506 394.17853 164.00195 393.68555 C 162.32883 393.19257 162.91649 377.4521 163.25391 370.50586 C 163.59133 363.55963 164.87815 351.1178 166.20117 351.16016 z M 207.51758 356.72266 C 209.16421 356.51602 211.2848 372.91552 211.82617 378.33203 C 212.36754 383.74857 213.72077 403.13264 212.07422 403.12891 C 210.42767 403.12491 209.01327 382.64796 208.46484 377.86523 C 207.91641 373.08253 205.87095 356.9293 207.51758 356.72266 z " /><path
     id="path4147"
     style="display:inline;opacity:1;fill:#9fa268;fill-opacity:1;stroke-width:3"
     d="M 319.76758 298.11328 C 319.71101 298.11582 319.65989 298.12611 319.61523 298.14648 C 316.75717 299.45014 318.92938 306.838 306.81836 310.77734 C 294.70735 314.71669 278.91267 312.90986 275.56641 314.80273 C 272.22014 316.69561 277.1631 347.60204 307.39258 343.54297 C 324.24744 341.27977 329.90585 328.08023 329.3457 317.08008 C 328.80305 306.42368 321.52133 298.03461 319.76758 298.11328 z M 349.18945 298.78906 C 347.43412 298.81419 340.66184 307.61922 340.75 318.28906 C 340.84105 329.30308 347.26935 342.14525 364.22852 343.4082 C 394.64508 345.67333 397.75309 314.52772 394.30078 312.83594 C 390.84848 311.14417 375.18792 313.8826 362.86523 310.66602 C 350.54254 307.44944 352.27388 299.94689 349.34375 298.81445 C 349.29797 298.79676 349.24608 298.78825 349.18945 298.78906 z " /><path
     id="path4151"
     style="opacity:1;fill:#9fa268;fill-opacity:1;stroke-width:3"
     d="M 157.66406 195.95508 C 157.31203 195.9526 156.95394 195.95736 156.58984 195.96875 C 133.28799 196.69798 136.12871 224.26294 138.95508 225.83203 C 141.78146 227.40111 152.09016 223.93825 157.88281 223.80078 C 163.67547 223.66331 172.55441 226.44532 175.43164 224.89844 C 178.26391 223.37573 179.84198 196.11118 157.66406 195.95508 z M 199.79688 204.25 C 196.0001 204.22615 192.43037 204.75603 190.12305 206.4082 C 185.50839 209.71255 186.83804 220.65055 187.74805 222.06641 C 188.65806 223.48226 200.97273 222.4433 207.31836 223.15039 C 213.66399 223.85747 223.4864 227.97668 225.73633 226.18164 C 227.98626 224.3866 227.87971 215.69213 227.12305 213.87305 C 226.36638 212.05397 217.27634 206.53514 210.83789 205.41211 C 207.61867 204.85059 203.59365 204.27385 199.79688 204.25 z " /></svg>
