<svg version="1.1" viewBox="0 0 512 512" xmlns="http://www.w3.org/2000/svg">
 <g>
  <circle cx="256" cy="256" r="256" fill="#a7cb54" stroke-width="3.18"/>
  <path d="m226 69c-3.46-0.0478-5.83 0.414-5.66 2.04 0.39 3.72 10 0.365 13.2 2.8 3.24 2.44 0.482 7.91 4.58 9.73 4.09 1.82 12.1-5.86 16.7-3.75 4.64 2.11 3.27 8.24 8.19 11.9 4.92 3.71 38.5 9.97 40.6 4.02 2.18-5.95-23.9-16.8-34.2-20.4-10.2-3.65-19-4.44-27.8-5.07-4.96-0.352-11.2-1.26-15.7-1.32zm-36.9 17.5c-3.06-0.0317-8.85 4.9-11.8 5.98-3.52 1.28-8.05 2.19-8.05 2.19s8.11 8.34 12.8 6.19c4.69-2.16 10.7-11.2 8.46-13.8-0.342-0.402-0.813-0.58-1.38-0.586zm143 4.65c-1.83 0.187-3.21 0.916-3.87 2.41-2.66 6 16.1 11.8 16.6 15.1 0.491 3.3-5.27 3.72-4.38 7.43 0.448 1.86 8.8 2.25 17.1 6.75 8.33 4.5 16.6 13.1 21.8 22.3 10.3 18.4 8.26 45.7 8.26 45.7s-5.33-12.2-5.7-16.7c-0.372-4.48 1.49-9.08 1.49-9.08s-20-27.5-31.1-34.1c-7.29-4.07-10.4-1.27-20.2-4.6-9.8-3.33-28.6-14.9-37.8-17.3-9.18-2.45-10-0.118-15.6-1.42-5.58-1.3-5.87-6.33-17.5-6.71s-22.7 13.6-33 12.6c-10.3-1.04-11.1-11.8-18.1-10.2-7.04 1.61-20.7 7.09-27.9 11.4-7.18 4.29-9.14 8.79-15.5 12.7-6.38 3.91-18.5 5.54-22.8 9.91-4.23 4.37-1.69 7.21-4.37 10.5-2.67 3.24-11.6 5.82-11.6 5.82s-16.9 0.641-22.1 5.79c-5.17 5.15-10.2 18.9-11.1 26.4-0.893 7.53-9 9.67-6.3 16 2.7 6.31 17.1-4.92 18.3-0.561 1.1 4.36-10 18.3-14.4 24.6-4.41 6.31-9.67 10.5-11.3 13.6-1.59 3.14-14 39.5-12.2 47.5 1.77 8.02 10.5 25.7 10.5 25.7s12.3-43.2 17.3-42.7c5.02 0.54-6.28 40.6-0.332 55 8.59 20.8 16.9 21.5 22.4 31.5 5.46 10 9.25 22 11.5 30.5 2.26 8.48 3.06 20.1 3.06 20.1s6.06 1.32 9.26 3.34c3.2 2.02 7.37 8.29 9.23 9.05 1.86 0.758 4.45-1.75 4.45-1.75s-5.87-14.4-6.96-22.1c-1.09-7.74 0.568-23.6 0.568-23.6s8.03 18.2 13.6 27c5.55 8.74 18 21.6 18.9 23.8 0.819 2.25 4.6 3.12 4.6 3.12s4.32-6.06 9.9-5.16c5.59 0.891 8.65 8.5 17.5 12.6 8.88 4.08 28.6 5.16 36 8.6 7.39 3.45 12.2-2.68 15-4.57 2.87-1.89-3.08-0.364 3.11-3.61 6.19-3.25 31.5-2.9 36.7-3.38 5.15-0.481 9.51-2.58 10.4-4.99 0.842-2.41-5.07-5.26-3.68-8.94 1.38-3.68 9.58 0.986 13.9 1.05 4.3 0.0668 8.15-1.74 12.5-1.18 4.33 0.56 8.31 5.04 13.5 3.79 5.19-1.25 7.16-8.42 7.16-8.42s7.06-2.64 6.55-8.12c-0.511-5.48-13.6-1.66-14-4.03s5.37-2.94 9.63-4.55c4.25-1.61 8.49-5.36 8.49-5.36s10.5-1.8 17.4-5.76c3.44-1.98 13.6-10.1 17.9-13 4.32-2.84 7.19-3.09 7.19-3.09s2.45-6.84 6.71-15.8c4.25-8.93 10.2-18.3 12.9-27.7 4.59-15.8 12-32.4 11.1-49.4-0.9-16.9-12.3-42.4-12.5-46.6-0.185-4.25 0.252-6.45-0.84-7.05-1.09-0.594-3.6 0.875-3.81 5.6-0.208 4.72 9.49 25.2 10.2 34.6 0.693 9.44 2.66 20.6-2.57 20.5-5.23-0.135-8.5-27.6-14.6-40-6.14-12.4-5.45-33-7.17-38.3-1.72-5.31-6.16-6.79-8.92-11.3-1.38-2.28-2.01-6.2-3.4-9.53-1.39-3.33-3.55-6.06-4.16-8.16-1.21-4.19 8.76-7 8.57-11.1-0.189-4.14-10.9-23.4-10.9-23.4 0 0-8.24 0.82-11.9-5.72-3.71-6.54-7.62-8.79-8.82-12.1-1.19-3.33 11.9-2.6 12-4.16 0.0608-1.56-20.3-16.2-29.6-20.2-6.94-3-16.6-7.31-22-6.75zm-177 16.9s-25.9 17-24.8 19.8c1.13 2.73 4.43 1.98 6.45 1.08 2.01-0.904 2.64-2.87 5.19-5.36s8.67-6.2 10.8-9.12c2.14-2.92 2.33-6.35 2.33-6.35zm88.3 11.3c6.82-0.361 13.2 6.91 26.9 7.55 13.8 0.643 22.9-4.62 32.8-0.886 9.94 3.73 24.4 20.3 21.9 23.7-2.51 3.41-10.5-7.87-14.6-4.1-4.12 3.77 7.07 14.2 0.955 18-6.12 3.81-16-9.78-16-9.78 0 0-1.65 4.15-5.56 4.83-3.9 0.685-16.5 5.29-12.6 13 3.9 7.67 9.36 0.77 13.1 1.66 3.7 0.894 5.29 4.02 9.26 4.4 3.98 0.38 6.18-7.08 13.4-3.51 7.23 3.57 7.01 11 10.8 17.8 3.82 6.84 9.28 17.5 10.8 23.2 1.5 5.69-0.137 4.05 1.53 9.06 1.66 5.01 10.7 13 12.7 18.5 2.05 5.47 4.17 9.92 1.46 12.3-2.71 2.36-6.22-5.39-10.3-2.21-4.07 3.17 9.74 22.4-8.7 42.7-18.4 16.9-56.4 30.6-56.4 30.6s33.8-25.1 30.4-31.9c-3.38-6.85-13.3 4.84-19.3 9.48-5.95 4.64-15.5 11.4-22.7 13.8-7.22 2.39-16.1 2.26-20.2-0.265-4.08-2.52-0.215-17.1-4.05-23.3-3.84-6.13-12.7-2.19-15.2-8.65-2.44-6.46 6.7-15.2 3.89-21-2.8-5.8-12.5-7.64-15.3-7.5-2.83 0.142-1.85 2.02-2.8 4.28s-4.59 6.68-4.59 10.4c-5.1e-4 3.74 6.09 12.9 9.78 17.2 3.69 4.34 10.6 7.74 10.6 7.74s-13.9-1.55-19.1-3.98c-5.21-2.44-9.86-3.93-11.7-7.49-1.85-3.56 1.46-5.29-0.676-10.5-2.14-5.25-16-8.7-16.9-16.8-0.91-8.08 6.6-16.6 10.9-21.2 4.29-4.58 9.18-9.23 13.1-8.68 3.94 0.545 3.24 4.98 6.1 4.87 2.86-0.108 2.7-3.08 5.62-4.77 2.92-1.69 7.85-2.55 11.5-5.09 3.67-2.54 5.24-7.73 9.5-8.18 4.26-0.441 6.46 6.07 11.9 6.69 5.42 0.617 6.92-6.76 15.8-7.59 8.85-0.828 21 2.69 19.8 9.25-1.18 6.56-12.4-0.344-18.1 1.66-5.72 2.01-17.8 4.68-15.4 10 2.43 5.35 8.85 0.027 13.3-0.496 4.41-0.523 11.7-0.174 13.9 3.45 2.23 3.63-4.71 8.19-3 12.6 1.71 4.46 13 5.92 12.6 10.8-0.41 4.84-5.51 10.4-10.4 9.88-4.92-0.471-17.4-2.5-18.6-8.29-1.15-5.79 8.04-5.98 7.9-10.1-0.143-4.12-5.41-6.49-8.6-7.05-3.19-0.558-13.5 3.18-14.3 8.67-0.833 5.49 7.85 7.27 9.63 12.3 1.78 5-3.48 11.9 0.17 14.9 3.65 2.93 8.14-3.37 11-2.32 2.89 1.04 2.38 4.45 5.45 5.07 3.07 0.626 5.34-6.98 10-6.6 4.7 0.385 7.44 10.5 12.3 11 4.83 0.439 7.95-4.09 11.3-6.45 3.34-2.36 7.81-1.27 8.28-6.88 0.476-5.61-6.96-10.6-6.18-14.9 0.781-4.31 12.2-0.593 14.4-8 2.18-7.41-4.16-14.2-4.16-14.2s-5.94-20.7-15.7-28.5c-9.79-7.83-18.9-13.3-20.3-17.8-1.45-4.45 0.179-7.32-2.79-9.35-2.97-2.04-8.01 2.73-13.4 3.46-5.43 0.733-8.52-0.0582-12.6 0.263-4.1 0.321-8.84 4.24-10.1 1.68-1.25-2.57 4.82-16.4 11.6-19.2 6.77-2.76 17.5-1.17 16.3-9.77-1.26-8.6-9.66-4.53-14.8-3.17-5.16 1.36-10.2-0.153-14.6 2.58-4.32 2.73-9.24 9.06-12.3 4.14-3.07-4.92 4.88-6.23 6.16-10 1.28-3.77 5.87-9.08 1.15-12.8-4.73-3.72-7.75 0.163-12.6 3.74-4.88 3.58-10.1 1.79-15.2 6.34-5.12 4.55-7.43 9.95-12.8 8.31-5.41-1.64 0.308-8.78-5.2-9.32-5.51-0.541-28.2 30.9-28.2 30.9 0 0-3.27-6.06 2.9-14.5 6.17-8.44 22-29.8 31.6-32.8 9.57-2.98 11.1 2.27 15.9 0.707 4.73-1.56 7.53-10.3 12.1-11.6 4.52-1.23 7.32 1.51 11.5 1.24 4.14-0.273 5.49-2.85 12.3-3.21zm81.9 11.7s26.6 4.87 34.7 30c8.06 25.1-4.61 37.6-4.61 37.6s-0.719-12.4-4.04-16.1c-3.32-3.67-9.26-0.228-11.6-4.15-2.37-3.92-4.03-10.6-3.5-14.6 0.529-4.03 5.36-4.39 2.13-12.4-3.23-8.01-13-20.4-13-20.4zm-170 30.3s1.18 7.7-6.07 11.9c-7.25 4.16-13.8 21.9-17.9 27.7-4.13 5.89-6.14 8.09-6.14 8.09s-1.7 14.4-4.64 23.3-13.8 29.1-13.8 29.1l-1.85-3.51s9.19-64.5 13-70.6c3.82-6.11 11.8-2.09 14.1-5.95 2.21-3.85 2.66-6.23 6.3-10 3.64-3.78 17.1-10 17.1-10zm217 18.8s0.796 0.367 1.88 7.05c1.08 6.68-1.33 24.6 2.05 33.3 3.38 8.74 6.45 13.2 7.07 24.2 0.625 11.1-7.38 33.9-6.95 40.4 0.431 6.47 11.1 7.58 7.02 24.8-4.04 17.2-14.2 13.2-18.5 18.3-4.28 5.09 0.811 9.63-3.33 13.2-4.14 3.57-32.4 13.8-39 15.9-6.58 2.16-12.4 1.39-12.4 1.39s2.66-2.25 8.99-6.02c6.33-3.77 17.2-7.13 29.5-15.5 12.2-8.41 20.3-33.3 15.3-35.7-5.07-2.32-9.32 12-19.8 17-10.5 5.06-14.7 5.99-19.3 6.18-4.62 0.191-5.17 2.22-7.47 2.73-2.3 0.502-5.54 0.0792-5.54 0.0792s25.1-10 35.6-26.6c10.5-16.6 11.5-34.6 11.5-34.6s5.27 4.12 8.59 3.76c3.32-0.358-0.745-25.7-0.0117-40.7 0.733-15 4.83-49.2 4.83-49.2zm-192 10.8c1.01-0.0877 1.83 0.0719 2.42 0.542 4.68 3.76-4.12 12.6 1.51 15.4 5.62 2.8 9.98-6.15 16.7-7.77 6.72-1.62 16.1-1.16 22.4-0.409 6.26 0.751 16.3-1.57 15.6 4.33-0.717 5.9-15.1 2.59-28.5 5.99-13.4 3.4-29 18.7-33 17-3.99-1.68 0.285-11.7-3.32-12.7-3.61-1.03-4.03 3.88-6.99 6.18-2.95 2.3-10.1 3.72-10.8 7.42-0.722 3.7 4.18 9.85 1.37 12.9-2.82 3.08-14.4 14.6-14.4 14.6s6.85-2.11 8.52 2.58c1.66 4.69-0.825 25.3-2.29 33.8-1.46 8.47-5.89 14-5.13 17.1 0.766 3.06 7.06 2.16 10.4 6.03 3.35 3.88 3.62 12.5 7.86 15.5 4.24 3 11.8-2.52 14.4 2.24 2.51 4.76 6.23 20.4 14.1 30.6 7.9 10.2 32.6 27.5 32.6 27.5s-8.82 2.39-16.8-0.869c-8-3.26-8.31-6.11-16.3-6.22-7.98-0.104-16.4 1.98-27.9-8.22-11.4-10.2-6.89-32.9-13.3-34.8-6.37-1.91-2.75 10.5-7.3 10.3-4.56-0.162-12-10.8-13.9-15.9-1.89-5.18 0.251-5.96-0.533-11.1-0.784-5.09-6.88-11.2-6.6-17.9 0.275-6.66 7.19-14 9.74-20.2 2.55-6.26 9.46-11.8 6.25-17.7-3.21-5.83-13.7 12.3-18.9 4.87-5.2-7.4 6.21-21.7 11.3-28.9 5.13-7.21 13.6-12.9 15.5-18.7 1.82-5.83-5.32-12.5 3.89-16.6 8.06-3.57 24.3-16.3 31.3-16.9zm220 11.3s5.23 7 7.04 14.3c1.81 7.35 0.883 29.4 0.883 29.4l-11.8-42.4zm-43.4 0.834s4.81 10.7 5.39 18.2c0.58 7.5-3.44 25.8-3.44 25.8s-3.33-17.7-3.54-25.1c-0.208-7.39 1.59-18.9 1.59-18.9zm34.7 30.9s11.6 30.8 8.15 46.5c-3.44 15.7-10.3 14.6-10.3 14.6s1.97-14.4 2.43-24.6c0.461-10.2-0.324-36.5-0.324-36.5zm17.4 23s10.1 12.6 12.6 20.4c2.5 7.83 2.03 19.6 3.08 25.2 1.04 5.63 3.05 7.57 3.08 12.7 0.0271 5.09-1.69 17.5-9.87 26.7-8.18 9.23-27.3 32.3-27.3 32.3s-7.6 2.78-12.1 5.16c-4.46 2.38-8.58 6.92-14.5 9.4-5.87 2.48-13.5 1.44-20.5 4.58-7 3.14-11.3 10.6-22.1 15.6-10.8 4.97-48 3.46-48 3.46s29.8-7.6 33.8-10.6c3.99-2.97 7.45-8.84 13.5-12.2 6.05-3.37 13.9-1.87 22.9-5.78 8.97-3.92 22.3-15.7 29.6-19.1 7.35-3.47 9.64-1.07 13-4.13 3.38-3.06 1.47-6.57 5.69-12.5 4.22-5.93 14.3-8.05 21.6-20.4 7.35-12.3 1.98-34.5 0.748-46.4-1.24-11.8-5.26-24.3-5.26-24.3zm-223 30.6c-1e-5 0 14.6 31.7 20.1 37.7 5.54 6 4.61 13.6 10.9 14.7 6.25 1.07 9.99-1.18 17.6 1.94 7.58 3.13 9.26 12.8 18.7 14.7 9.47 1.93 20.5-5.44 30.8-9.16 10.3-3.71 22.8-6.79 33-9.84 10.2-3.05 26.5-12 26.5-12s-8.59 11.9-17.4 15.3c-8.82 3.4-22.4 6.85-32.7 11.9-10.2 5.01-16.6 17.7-26.9 20.3-10.3 2.65-17.9-6.43-24.5-6.55-6.67-0.123-6.66 2.61-9.86 1.51-3.2-1.1-3.06-3.78-7.33-7.55-4.28-3.77-14.6-7.05-20.4-11.6-5.78-4.56-4.63-13.6-7.33-21.3s-8.95-22.3-10.1-27.5c-1.11-5.22-1.1-12.6-1.1-12.6zm26.9 16.6s11.1 8.92 14.9 12.9c3.79 4 8.17 10.5 8.17 10.5s-10.1-2.27-14.3-6.28c-4.19-4.01-8.73-17.1-8.73-17.1zm191 7.06s0.875 12.9-5.85 20.7c-6.72 7.83-19.9 11.4-19.9 11.4s10-9.29 15.3-14.6c5.31-5.27 10.4-17.6 10.4-17.6zm-77.8 52.9c2.09-0.022 3.55 0.154 3.55 0.154s-10.2 7.72-16.1 9.87c-5.89 2.15-17.4 6.27-18.6 2.75-1.17-3.52 4.15-7.44 6.32-8.33 2.17-0.887 10.3 0.0317 15.5-2.59 2.93-1.47 6.64-1.83 9.32-1.86zm-41.9 19.1c2.8 0.0211 4.77 0.93 4.62 3.72-0.361 6.87-27.9 13.3-35.2 13.9-7.32 0.66-16-5.77-16-5.77s8.86-0.994 14.2-2.46c5.36-1.46 12.8-5.79 18.8-6.92 3.61-0.668 9.47-2.54 13.6-2.5zm-83.5 21.5s20.8 4.84 31.3 5.93c10.5 1.08 31.7 0.553 31.7 0.553s-16 8.91-33.1 7.18c-17.2-1.74-29.9-13.7-29.9-13.7z" fill="#208d45"/>
  <path d="m50.6 357c0.313 1.2 0.642 2.26 0.985 3.12 2.74 6.91 7.55 8.49 10.1 13 2.57 4.49 1.48 9.5 5.5 13.8 4.02 4.27 16.1 9.78 20.6 11 4.47 1.21 2.6-5.09 6.56 0.808 3.96 5.9 3.76 18.7 15.3 25.3 11.5 6.68 25.1 7.87 29.4 17.5 4.3 9.59-3.36 7.67 4.02 16.5 7.38 8.81 36.3 15.5 47.6 21.1 11.3 5.65 15.1 14.1 21.2 11.6 6.13-2.48 8.72-7.58 4.32-14.7-4.4-7.15-20.1 4.95-33.4-7.96-13.2-12.9-37.9-55.7-37.9-55.7s8.79 4.96 12.1 10.2c3.35 5.24 7.45 3.14 11.8 9.49 4.32 6.35 25.8 15.1 27.9 23.2 2.09 8.13 15.7-0.302 17-3.97 1.3-3.67-27.2-16.4-27.9-26.1-0.717-9.72-14.1-10.6-14-15.1 0.0222-4.45 6.66-2.82 5.47-8.57-1.19-5.75-25.6-8.31-34.7-19.4-9.05-11.1-11.9-16.9-18.3-23.8-6.35-6.96-16.1-10.5-19.4-18-3.36-7.44 3.16-20.6-3.32-21.6-6.47-0.977 1.56 13.2-2.52 14.7-4.08 1.47-2.71-28.2-6.71-28.8-4-0.634-1.95 11.8-6.93 16-4.98 4.24 20.6 39.8 20.6 39.8s-10.4-6.73-16.7-15.6c-6.2-8.89-19.3-34.8-16.5-38.9 2.88-4.05 7.97 2.72 10.3-0.781 2.37-3.5-2.37-6.39-3.06-12.3-0.694-5.9 3.06-14.7 5.71-19.9 2.65-5.26-1.85-9.92-1.35-17.2 0.502-7.32 5.08-17.5 5.7-26.1 0.625-8.61-2.79-15.3-1.75-25 1.04-9.7 4.52-31.7 9.39-32.2 4.86-0.525 3.53 10.4 7.42 9.25 3.89-1.16 10.8-11.3 11.9-15.7 1.08-4.34-1.65-7.91-1.65-7.91l6.67-4.26s8.53-10.3 13.2-10.8c4.7-0.533 5.59 5.62 8.51 5.06 2.92-0.556 3.59-3 6.28-5.18 2.69-2.18 7.19-4.97 9.87-7.89 2.68-2.92-0.242-3.34 6.18-9.29 6.42-5.96 17.9-5.33 31.4-15.6 13.5-10.3 32.2-20.1 30.4-24.4-1.84-4.38-7.01 0.454-20.1 4.76-13.1 4.3-18.9 12.9-23.9 16-4.94 3.12-6.91 0.78-7.49-0.99-0.572-1.77 6.11-2.87 7.27-3.6 1.16-0.725 22.2-22.8 52.6-26.2 30.4-3.39 56.3 6.85 73 9.31 16.6 2.45 18.1 9.57 25.3 17 7.17 7.43 15.8 26.7 17.8 26.2 2.06-0.514-1.59-7.51 1.16-9.14 2.75-1.64 6.25 5.57 8.45 4.96 2.2-0.615-6.61-14.7-10.6-21.4-3.96-6.68-6.86-14.4-13.1-18.6-6.2-4.19-14.9-4.25-23.4-9.56-8.53-5.31-7.77-9.58-17.7-11.8-9.93-2.23-8.09-6.42-15.9-10.5-7.82-4.11-36.7-11.1-36.7-11.1s4.63-3.85 9.18-5.11c4.55-1.27 12.4 0.839 14.9-0.344 2.45-1.18 1.37-4.59-0.933-5.68-2.31-1.1-15.5-1.48-22-1.75-6.59-0.266-19.8 6.22-22 5.23-2.12-0.986-4.52-8.54-15.5-11.3-11-2.79-17.8 3.67-21.8 5.98-3.99 2.32-15 3.34-19.8 6.36-4.83 3.02-4.03 6.38-9.32 9.92-5.29 3.54-17.7 1.93-20 6.59-2.33 4.66 4.81 6.54 3.34 9.71-1.47 3.17-7.23 5.14-9.99 3.93-2.76-1.22 1.2-5.17-2.6-6.87-3.8-1.69-13.4 2.13-16.4 6.3-3.06 4.17 2.9 10.5-0.786 13.5-3.69 2.94-10.7-3.06-14.6-2.35-3.96 0.708-7.89 0.787-8.1 4.57-0.214 3.79 12 2.9 9.98 7.73-1.97 4.82-20.6 24.1-25.5 27.9-4.92 3.8-4.23-6.69-8.5-4.4-4.27 2.29-6.54 15.6-1.99 19.3 4.55 3.7 10.5-10.5 16-4.62 5.46 5.88-12.5 13-13.1 30-0.562 17 1.91 26.4-2.77 29.3-4.68 2.89-6.2-8.64-6.2-8.64s-7.76 30.2-3.56 36.6c4.2 6.46 6.8-0.55 8.89 3 2.09 3.55-3.64 11.3-2.78 15.5 0.859 4.25 6.18 4.86 5.59 8.59-0.596 3.74-6.75 4.52-8.6 9.08-1.86 4.55 1.48 10.7 0.904 15.7-0.575 5.01-4.82 6.52-4.51 12.4 0.314 5.92 9.33 12.9 8.73 19.4-0.602 6.54-6.23 8.18-7.76 14.3-1.54 6.15 5.32 14.9 1.34 19.9-3.98 5.02-7.38 3.09-7.38 3.09s1.42 15 3.61 23.3zm-26.2-123c0.622 2.77 1.88 4.65 4.46 4.85 6.89 0.533 8.62-13 7.09-16.9-1.53-3.87-4.61 1.13-6.08-2.76-1.47-3.89 6.93-11.3 7.55-16.7 0.62-5.34-3.19-7.65-2.71-13.7 0.473-6.09 11.8-18 7.77-21.3-4.01-3.25-4.58 1.56-7.08 4.32-2.5 2.76-3.2 11-6.09 12.7-2.89 1.68-1.25-4.76-5.95-0.384-4.7 4.38-1.09 23.3 0.0228 32.5 0.696 5.73-0.0322 12.8 1 17.4zm101-11.3s8.28-12.1 14.4-17c6.16-4.94 7.73-0.543 11.4-1.03 3.66-0.486 9.04-3.64 11.9-6.79 2.81-3.15-1.74-7.82 0.603-11.8 2.35-3.97 13-7.65 13-7.65s-14.2-8.73-34.1 4.84c-19.9 13.6-17.2 39.5-17.2 39.5zm85.7 243c2.11 6.48 16.5 15.1 24.3 14.9 8.59-0.211 11.3-9.41 17.3-13.1s18.4-9.03 18.4-9.03-17.4-3.55-23.4-2.75c-6.08 0.806-7.55 4.08-12.2 4.89-4.69 0.815-11.2-1.28-15.3-0.548-4.15 0.736-8.47-2.81-9.18 3.74-0.066 0.614 0.0205 1.26 0.239 1.93zm-13.6-58c1.19 4.12 3.44 9.33 7.68 13.7 8.48 8.78 31.2 26.5 33.9 26.9 2.75 0.41-0.867-1.77 9-1.65 9.86 0.118 38.8 4.23 46.1 3.88 7.22-0.344 7.79-5.63 19.8-5.36 12 0.27 24.7 1.54 36-2.2 11.3-3.74 30.4-20.3 30.4-20.3l-25.4 6.58s14.2-10.1 20.5-12.8c6.31-2.64 11.3-0.746 17.3-4.81 5.92-4.06 6.64-17 13.7-21.9 7.02-4.83 17.2-1.97 22.8-5.53 5.66-3.56 7.05-8.61 11.1-12.2 4-3.62 9.5-5.62 12.6-9.35 3.07-3.72 7.63-8.85 5.65-11.3-1.98-2.49-2.9-1.19-6.35 0.0603-3.45 1.25-12.4 8.72-12.4 8.72s14.1-20.7 21.1-39.5c6.94-18.8 7.36-43.9 9.19-44.5 1.83-0.587 3.39 9.78 7.02 10.1 3.63 0.299 4.44-22.2 6.27-33.6 1.84-11.4 7.34-16 6.41-21.4-0.925-5.43-3.28-6.22-4.14-9.52-0.865-3.3-3.29-6.67-6.08-6.85-2.79-0.172-4.67 5.16-7.5 6.44s-8.4 0.179-10.1 3.25c-1.68 3.07 4.13 4.6 5.43 9.95 1.3 5.35 0.528 12.6 0.882 18 0.354 5.43-3.76 1.22-6.46 3.65-2.71 2.43-5.78 14.3-5.78 14.3l-4.08-11.8s-0.873-19.1-5.07-28.7c-4.19-9.53-21.4-25-19-29 2.45-4.05 25.8 9.47 29.4 6.28 3.59-3.19-36.8-68.7-31.1-73.2 5.7-4.49 7.74 3.75 13.4 5.91 5.7 2.16 18.3 7.43 18.3 7.43s-4.89-14.8-8.39-20.5c-3.5-5.72-10.8-4.57-11.1-15.1-0.311-10.5-21-21.1-21-21.1s9.72 25.3 7.86 29.8c-1.87 4.56-10.8-1.29-13.8-7.64-2.97-6.34-4.26-14-11-19.6-6.78-5.61-23.1-14.4-26.8-10.4-3.68 3.99 7.53 13.2 12.9 18.3 5.35 5.18 13.5 7.51 16.9 14.7s4.49 20.1 0.0539 24.1c-4.44 4.01-8.35-2.21-11.2 0.281-2.89 2.49-1.99 9.75-0.136 13.3 1.85 3.55 6.83-2.9 10.5 6.87 3.63 9.77 3.63 34.8 6.9 44s2.34 5.72 7.13 12.3c4.79 6.56 21.3 17.5 23.2 25.6 1.89 8.14-4.16 9.41-4.33 15-0.17 5.63 5.26 10.9 3.97 17.7-1.29 6.89-8.42 12.8-13.6 27-5.19 14.2-2.68 28-8.25 34.7-5.58 6.64-17.6-0.045-22.8 8.15-5.25 8.19-9.2 12.3-18.1 14.7-8.94 2.43-6.2 19-24.3 29.3s-31.6 6.92-39.5 8.59c-7.99 1.67-6.44 4.1-6.44 4.1s11.4 4.06 20.1 4.85c8.65 0.789 21.1 0.532 21.1 0.532s-10.2 12.1-20.7 15.8c-10.5 3.69-31.1 3.67-40.8 0.986-9.71-2.68-8.46-3.66-16.4-8.56-7.91-4.91-10.3 0.621-13.6-0.704-3.29-1.32-5.39-5.45-7.63-5.88-2.24-0.433-3.99-1.02-5.38 1.38-1.39 2.41 12.1 13.5 4.38 16.1-7.68 2.55-8.3-1.85-14.9-2.98-6.56-1.13-18.3 2.78-24.5-2.95-6.13-5.73-11.9-19.7-11.9-19.7s0.126 3.02 1.31 7.14zm-41.3-240s31-4.48 44.3-7.44c13.3-2.96 34.4-12.9 35.6-9.87 1.18 3-1.05 8.89-1.05 8.89s16-3.39 33.2 2.31c17.2 5.7 32.5 26.6 32.5 26.6s-0.474-3.11-1.51-5.12c-1.04-2.01-2.96-2.03-4.33-6.27-1.37-4.24-3.28-7.93-10.4-16.4-7.14-8.48-20.7-8.96-20-14.2 0.704-5.27 24.6-3.81 35.1 5.52 10.5 9.33 16.3 18.6 21.3 23.6 4.95 4.96 7.6 6.89 7.6 6.89s-0.842-5.59-4.44-11.2c-3.6-5.59-19.9-29.4-24.1-32.4-4.2-2.97-6.84 2.85-12.4 0.112-5.57-2.74-4.73-13.2-20.8-12.7-16.1 0.413-14.3 10.5-19.8 12.5-5.54 1.97-27.6 0.0779-37.1 3.34-9.5 3.26-12.6 7.18-19.3 12.4-6.77 5.25-23 7.34-28.6 9.97-5.56 2.62-5.68 3.45-5.68 3.45zm59.3 175c2.37 6.41 17.7 18.4 23 25 5.96 7.56 9.95-0.686 15.5-0.411 5.57 0.275 12.7 6.8 20.4 9.81 7.64 3.01 23.1 10.1 28.2 3.52 5.11-6.62-13.4-12-9.18-16.4 4.26-4.4 10.9 0.668 17.1 1.52 6.14 0.847 14.3 5.49 20.2 4.13 5.9-1.36 9.67-8.5 13.9-10.5 4.25-1.96 5.49-0.168 9.53-3.17 4.03-3.01 11.4-12.5 10.3-16.7-1.04-4.27-10.9 2.09-10.9-4.28 0.01-6.37 21-7.67 27-20.7 5.94-13.1 1.92-20.4-0.0621-27.8-1.99-7.44 0.426-8.41 1.2-16.6 0.772-8.22-3.62-15.8-3.62-15.8s-8.73 27.1-15.6 36.9c-6.87 9.8-19.6 17-23.1 20.5-3.51 3.49 3.3 9.2 1.77 13.9-1.52 4.66-8.95 6.99-11.5 11-2.52 4.04-0.0902 9.67-2.57 11.1-2.48 1.45-8.49-1.32-16.3-0.617-7.79 0.698-26.5 3.39-30.2 6.07-3.67 2.68-0.0429 8.53-0.0429 8.53s-13.1-7.96-16.5-9.82c-3.42-1.87-7.53 4.17-11 4.4-3.43 0.227-6.52-6.07-9.3-8.25-2.78-2.18-7.18-1.39-7.22-4.99-0.0409-3.6 9.84-2.06 10.3-6.17 0.432-4.11-17-14.8-23.5-26.5-6.46-11.6-7.31-25.8-12.6-25-5.34 0.764-0.7 9.54 0.272 15.5 0.972 5.99 3.02 14.9 6.19 20.7 3.16 5.84 12.1 7.72 11.1 13.6-0.985 5.9-11-0.127-13.1 5.13-0.259 0.657-0.185 1.46 0.154 2.37zm-17.4-206s22.8-7.1 31.8-9.14c9.04-2.04 22.2-3.71 22.2-3.71s-0.888-6.57-15.5-5.97c-14.6 0.598-38.5 18.8-38.5 18.8zm100 178s6.42-1.77 10.7-4.07c4.27-2.3 15.4-11.6 21.4-16 5.98-4.36 14.2-5.49 16.7-12 2.48-6.47 2.66-16.9 4.84-21.7 2.18-4.88 4.56-5.4 4.69-8.63 0.131-3.23-2.26-2.56-3.89-8.78-1.63-6.22 4.34-15.4-0.651-24.4-5-8.91-17.7-11.7-24.7-20-7.05-8.3-13.6-20.1-18.9-27.5-5.27-7.36-17.9-12.5-17.9-12.5s12.1 13 17.4 21.7c5.32 8.74 11.3 19.6 17.2 28.2 5.92 8.65 15.2 17.1 16 26.3 0.778 9.26-7.25 13.2-8.01 21-0.76 7.79 2.19 10.7 2.87 16.8 0.687 6.06-6.21 7.05-10 13.6-3.8 6.59-27.7 27.8-27.7 27.8zm4.18-277c0.493 1.61 1.79 3.46 2.55 5.5 1.21 3.26 7.12 4.08 8.88 6.49 1.76 2.41 2.32 6.19 2.32 6.19-1e-5 3e-6 3.44-2.68 6.1-2.55 2.66 0.134 8.65 1.98 12.3 5.53 3.63 3.54 0.0924 10.5 8.24 13.6 8.14 3.11 17 3.84 18.3 1.04 1.29-2.8-7.14-9.24-4.57-12.7 2.57-3.41 31 7.91 31 7.91s-0.772-2.99-3.9-5.32c-3.12-2.33-13.9-3.14-15.2-5.63-1.3-2.48-1.8-8.18-9.24-14.4-7.44-6.19-25.7-10.7-29.2-9.51-3.53 1.17-2.2-2.09-5.45-3.15s-10.5 4.32-14.3 4.95c-3.73 0.629-6.01-2.75-7.53-0.692-0.569 0.773-0.563 1.65-0.267 2.62zm125 365c0.253 0.993 0.675 1.86 1.27 2.53 3.16 3.54 7.68-5.68 12.2-2.05 4.52 3.63 4.19-6.73 6.84-8.71 2.65-1.97 7.48-0.384 8.15-3.21 0.666-2.83-5.88-1.87-5.85-6.46 0.0304-4.59 8.33-12.1 12.9-13.8 4.54-1.71 4.84-4.43 3.56-7.86-1.28-3.43-9.88 8.65-15.4 13.1-5.52 4.46-11.7 11.1-17.8 13.6-4.92 2.01-6.96 8.6-5.87 12.9zm-31-130s7.11-14.7 4.17-31c-2.94-16.3-14.9-29-14.9-29s5.97 19.5 7.77 29.6c1.79 10 2.96 30.5 2.96 30.5zm79.4 76.8s9.19-7.29 9.75-11.1c0.563-3.76-3.19-2.22-3.37-7.41-0.181-5.19 6.79-14.4 8.05-21.6 1.26-7.18-0.183-20.7-0.183-20.7s-4.12 2.76-5.51 4.79c-1.39 2.03-0.823 3.5-2.53 7.02-1.7 3.52-6.35 5.28-8.45 13.6-2.09 8.31 2.23 35.3 2.23 35.3zm-21.9-183c0.689 2.8 5.15 2.11 6.76 5.1 1.66 3.08-0.825 7.98 1.07 12.3 1.89 4.28 10.7 11.6 10.7 11.6s3.1-3.11 3.08-5.97c-0.0179-2.86-3.93-5.79-4.91-9.23-0.98-3.44 0.948-6.94-0.723-11-1.67-4.05-10-11.5-10-11.5s-6.46 5.33-6 8.46c0.0143 0.098 0.0313 0.192 0.0534 0.282z" fill="#5cad4a"/>
 </g>
 <path d="m291 28c-1.81 0.0506-3.66 0.658-5.06 1.51-2.49 1.52-5.11 4.42-4.05 7.34 1.06 2.92 6.97 4.32 9.84 4.26 2.87-0.0598 4.58-0.385 5.72-2.77 1.14-2.38 0.0498-7.52-2.53-9.31-1.13-0.78-2.51-1.08-3.92-1.04zm-61.2 0.445c-2.24-0.0154-4.17 0.318-5.21 1.12-3.32 2.56-3.09 3.8-0.329 6.82 2.76 3.02 14.9 4.08 18 1.66 3.12-2.42 3.11-2.66 0.604-5.73-1.72-2.11-8.15-3.83-13.1-3.86zm33.7 11.7c-2.45-0.0031-5 0.527-5.82 2.65-1.09 2.83 3.29 6.97 5.57 8.47 2.28 1.5 4.8 0.349 6 1.17 1.21 0.823 1.96 0.152 1.39 2.29-0.57 2.13-9.19 2.09-9.51 5.55-0.319 3.46 4.34 6.07 8.12 6.83 3.78 0.755 9.29 1.23 11.7-3.56 2.44-4.79-4.38-15.2-7.59-18.9-3.22-3.67-4.66-4.04-7.54-4.36-0.721-0.0802-1.52-0.139-2.34-0.14zm-50.1 5.56c-2.89-0.0381-6.05 0.769-7.96 1.99-3.21 2.05-4.28 8.79-4.28 8.79 0 0 5.21 3.36 8.55 3.52 3.34 0.164 10.3-3.08 10.3-3.08s1.51-7.46-1.52-9.81c-1.23-0.958-3.08-1.38-5.05-1.41zm-46.6 0.146c-2.51-0.0166-5.53 1.07-7.34 2.89-2.76 2.78-4.06 10.2-1.67 12.6 2.4 2.36 5.11 0.702 7.33-0.603 2.22-1.31 3.5-4.35 4.32-6.74 0.818-2.38 2.9-5.2 0.621-7.13-0.782-0.665-1.96-0.976-3.27-0.985zm122 0.753c-0.584-0.0164-1.11 0.132-1.52 0.528-1.64 1.58-0.0632 4.79 2.03 6.2 2.09 1.41 7.59 1.8 8.55-0.243 0.962-2.05-1.87-2.98-3.67-4.08-1.35-0.824-3.64-2.36-5.39-2.41zm23.5 8.04c-2.06-0.0156-3.94 0.513-4.94 1.85-2.29 3.07 0.922 7.87 4.12 10.1 3.2 2.2 9.93 3.71 12.3 0.664 2.39-3.05-0.78-8.18-4.04-10.4-1.84-1.25-4.8-2.17-7.46-2.19zm39.1 1.72c-2.45 0.0362-5.12 0.897-6.51 2.26-2.22 2.18-3.44 6.88-0.885 8.23s4.3-4.89 6.98-5.04c2.68-0.153 4.15 5.02 6.31 3.51 2.16-1.51 0.609-6.36-2.04-8.07-0.993-0.641-2.39-0.915-3.86-0.893zm-137 7.49c-0.439-0.0028-0.849 0.0396-1.21 0.139-2.91 0.793-6.3 6.21-6.3 6.21s6.21 4.05 9.32 3.16c3.12-0.887 5.76-7.29 5.76-7.29s-4.5-2.2-7.58-2.22zm-55.2 3c-3.18 0.0314-8.29 0.823-10.1 3.17-2.62 3.42-2.42 10.3 1.21 12.9 3.63 2.63 10.7 1.31 13.5-2.27 2.75-3.58-1.48-12.8-1.96-13.5-0.152-0.224-1.2-0.367-2.64-0.353zm235 4.93c-0.281-3e-3 -0.556 0.0148-0.824 0.0522-4.29 0.598-7.01 5.46-7.17 8.63-0.159 3.17 2.43 6.1 4.62 6.8 2.19 0.702 2.84-1.88 5.01-1.71 2.18 0.165 4.03 4.69 6.8 3.56 2.77-1.13 3.97-5.79 2.54-9.45-1.34-3.43-6.77-7.84-11-7.89zm-270 2.63c-1.82 0.0099-3.79 0.444-5.56 1-3.53 1.11-8.41 4.43-9.29 7.42-0.883 2.99 0.142 5.06 2.41 6.75 2.27 1.69 6.72 1.67 9.75 0.846 3.03-0.821 5.86-2.55 7.26-5.22 1.41-2.66 2.32-6.95 0.0457-9.24-1.14-1.15-2.8-1.56-4.62-1.55zm198 0.9c-2.06 0.0144-4.34 0.68-4.88 1.82-0.813 1.74 0.638 2.5 2.28 3.43 1.64 0.932 5.86 2.1 7.19 0.481 1.33-1.62 0.11-4.1-1.83-5.19-0.667-0.375-1.68-0.546-2.76-0.538zm-27.1 6.88c-0.654 5.48e-4 -1.28 0.0413-1.84 0.124-3.02 0.442-6.6 1.16-7 3.39-0.397 2.22 3.92 2.46 4.45 4.4s-3.33 3.34-1.6 5.77c1.74 2.43 9.84 3.93 12.2 1.45 2.34-2.49-4.03-5.75-2.12-8.12 1.9-2.36 8.95 2.35 10-0.256 1.05-2.61-2.88-3.72-5.59-5-2.2-1.04-5.65-1.76-8.49-1.76zm58.2 7.07c-1.22-0.0076-2.28 0.322-2.99 1.16-2.53 2.97 2.14 8.2 5.09 10 2.95 1.85 7.61 2.68 9.46 0.436 1.85-2.24 0.0615-5.5-2.48-7.77-1.83-1.63-5.95-3.85-9.07-3.87zm-200 0.412c-1.09 0.0239-2.1 0.203-2.91 0.553-2.59 1.12-4.61 2.25-3.97 5.87 0.641 3.62 8.58 10.1 12.5 9.34 3.89-0.738 3.61-4.02 3.84-6.55 0.227-2.53-0.409-5.53-2.72-7.33-1.59-1.24-4.32-1.93-6.71-1.88zm-58.7 0.735c-3.81-0.102-8.19 6.34-8.03 9.69 0.17 3.47 3.19 5.98 6.19 5.91 3-0.071 5.6-3.45 6.15-6.49 0.554-3.04-0.0581-8.53-3.95-9.08-0.122-0.0172-0.243-0.0273-0.366-0.0306zm307 5.55c0-2.46-5.63 2.03-5.85 4.15-0.226 2.2 1.92 4.01 4.44 4.48 2.52 0.47 7.72-0.791 8.11-3.5 0.391-2.71-3.79-5.04-6.45-5.13-0.083-0.0029-0.249 0.0758-0.249-0.0036zm33.7 14.5c-3.09 0.0419-5.88 2.26-7.18 4.96-1.6 3.33 0.599 8.99 2.95 11.6 2.35 2.61 5.68 4.32 8.44 3.34 2.75-0.984 3.66-3.66 3.72-7.25 0.0682-3.59-1.86-11-5.76-12.3-0.731-0.242-1.46-0.348-2.17-0.339zm-53-4.2c-0.604-9e-3 -1.12 0.135-1.52 0.479-3.18 2.75 0.956 6.91 3.87 8.48 2.91 1.57 10.3-1.26 10.3-1.26s-8.39-7.64-12.6-7.7zm-274 19.1c-2.21 0.0484-4.73 1.3-6.01 2.68-1.86 2.01-2.72 5.62-0.727 7.55 1.99 1.93 6.92 1.49 9.06-0.596 2.14-2.09 2.71-7.02 0.356-8.86-0.734-0.574-1.68-0.8-2.68-0.778zm278 1.88c-3.27 0.0226-6.45 1.55-8.1 4.23-2.2 3.57-0.337 9.81 2.55 13.2 2.89 3.38 8.56 6.37 12.4 4.86 3.85-1.51 4.82-5.99 4.41-10.1-0.408-4.13-3.82-10.3-8.03-11.7-1.05-0.34-2.15-0.501-3.24-0.493zm-317 0.149c-0.785-0.0276-1.67 0.128-2.68 0.492-3.26 1.16-6.57 7.73-7.01 11-0.443 3.29-1.07 5.38 2.12 6.75 3.19 1.37 10.2-2.03 12.3-5.33 2.13-3.3 1.36-8.07-0.491-10.4-1.27-1.57-2.54-2.52-4.27-2.58zm20.1 5.32c-1.86 0.0212-3.75 0.493-4.72 1.19-1.93 1.4-0.115 3.02-1.19 4.94-1.08 1.91-5.39 3.54-5.75 5.79-0.357 2.25 1.07 4.58 2.65 5.12 1.59 0.549 1.5-2.96 3.75-1.56s-2.4 8.88-0.116 11.5c2.29 2.58 5.81 2.38 9.11 1.43 3.3-0.955 7.47-4.35 8.35-7.47 0.881-3.12-0.791-6-2.59-8.16-1.8-2.16-6.29-1.63-7.29-4.04-0.996-2.41 3.97-4.99 2.31-7.19-0.832-1.1-2.66-1.53-4.52-1.51zm319 7.5c-0.934 6e-3 -1.87 0.256-2.76 0.83-3.55 2.3-2.51 12.5 0.221 14.7 2.73 2.23 3.79 1.02 6-0.762 2.21-1.79 4.82-7.25 3.26-10.3-1.17-2.31-3.92-4.5-6.72-4.48zm51.4 0.801c-0.728-5e-3 -1.41 0.146-1.97 0.502-2.26 1.43-1.15 5.51-0.647 7.51 0.505 2 0.839 3.54 2.66 4.1 1.82 0.56 4.64-0.515 5.91-2.31 1.27-1.79 1.53-4.9 0-6.89-1.15-1.49-3.76-2.91-5.94-2.92zm-10.5 15.5c-3.23-8.5e-4 -6.48 1.11-8.35 3.71-3.33 4.63 2.33 13.7 4.91 18.5 2.59 4.81 6.15 9.14 9.01 10.2 2.86 1.07 3 1.81 4.35-0.51 1.36-2.32-5.9-7.4-5.3-10.7 0.604-3.26 5.01-2.12 6.04-5.7 1.03-3.58 0.381-11.1-3.81-13.7-1.83-1.17-4.34-1.84-6.85-1.84zm-383 10.8c-0.515-0.0101-1.03 0.0359-1.52 0.14-3.94 0.836-6.84 6.37-6.36 10.1 0.477 3.72 3.66 8.03 7.98 7.65 4.32-0.386 9.02-7.43 8.17-11.5-0.745-3.58-4.66-6.3-8.27-6.36zm-32.8 5.66c-0.709 5e-3 -1.46 0.176-2.24 0.555-3.58 1.73-2.89 10.2-2.24 13.7 0.654 3.52 1.49 5.87 3.86 6.66 2.37 0.794 4.5 0.276 6.53-2.53 2.03-2.81 2.33-10.5 0.28-13.7-1.6-2.54-3.66-4.66-6.2-4.65zm434 4.44c-0.136 4e-3 -0.274 0.0158-0.413 0.0378-4.45 0.704-4.26 10.5-1.66 12.8 2.6 2.29 5.97 1.59 7.54-1.38 1.52-2.88-1.25-11.6-5.47-11.5zm1.7 56c-1.88-0.0147-3.67 0.713-5.14 2.32-3.15 3.44-0.224 12.9 3.09 16.1 3.31 3.2 7.18 5.3 10.8 2.07 3.67-3.23 1.32-14.6-2.44-17.8-2-1.72-4.23-2.69-6.35-2.71zm-432 23.9c-1.15-0.0125-2.29 0.266-3.31 0.87-2.97 1.76-3.3 6.69-2.47 10.4 0.835 3.66 4.31 9 7.56 9.47 3.25 0.474 4.36-0.824 5.87-3.95 1.51-3.13 1.26-10.8-1.42-13.7-1.76-1.9-4.04-2.99-6.24-3.01zm-4.42 54.4c-2.47 8e-3 -4.01 2.54-4.91 4.58-1.03 2.33-1.37 6.25 0.977 7.88 2.35 1.63 7.16 1.29 8.93-1.58 1.77-2.87-0.749-9.84-3.88-10.7-0.391-0.111-0.763-0.161-1.12-0.16zm443 6.86c-0.156 3e-3 -0.314 0.014-0.476 0.0325-5.18 0.587-7.19 11.4-5.87 15.5 1.33 4.05 4.24 5.99 7.72 5.26 3.48-0.726 5.95-5.71 5.8-9.77-0.148-3.93-2.33-11.1-7.17-11zm-419 3.77c-3.51-0.0664-5.79 4.2-5.89 7.28-0.104 3.08 6.04 5.02 5.47 7.73-0.563 2.72-4.72 1.13-6.39 4.08-1.67 2.95-3.57 9.05-0.0876 12.8 3.49 3.76 13.8 4.91 18.1 2.15 4.24-2.76 4.24-8.62 3.01-11.6-1.23-3.02-4.93-1.73-6.48-4.15-1.55-2.42 0.121-6.34-1.15-9.5-1.27-3.16-3.02-8.7-6.53-8.77zm386 4.97c-0.5-0.0203-0.995 0.031-1.48 0.164-5.16 1.42-5.14 10.6-3.62 14.4 1.52 3.78 4.57 5.93 8.18 5.42 3.61-0.512 7.64-4.4 7.31-8.88-0.292-4.06-5.56-10.9-10.4-11.1zm-21.3 23.6c-3.58-0.066-9.3 1.29-11.6 5.56-2.48 4.56-0.809 13.9 3.34 17.6 4.15 3.67 12.5 5.49 15.1 1.59s-7.75-6.76-7.64-11c0.11-4.22 8.15-6.68 7.59-9.81-0.562-3.14-2.56-3.68-6.04-3.94-0.218-0.0166-0.447-0.0281-0.685-0.0324zm-326 6c-0.366-0.0128-0.761 0.0442-1.19 0.182-4.57 1.47-3.52 12.9-0.0609 16.1 3.45 3.18 10.3 2.48 11.9-0.357 1.6-2.83-2.55-4.17-4.5-6.81-1.77-2.4-2.58-9-6.12-9.12zm-29.3-57.5c-0.667 0.0177-1.32 0.136-1.91 0.367-2.72 1.06-5.5 4.94-4.12 7.81 1.38 2.87 7.74 4.16 10.5 2.55 2.71-1.61 3.05-5.48 1.65-7.78-1.09-1.8-3.69-3-6.08-2.94zm58 61.7c-0.884-0.0432-1.84 0.174-2.98 0.72-3.63 1.75-4.23 11.6-4.96 13.6-0.73 2.06 10.1 8.45 14.4 8.3 4.29-0.151 6.18-0.883 7.2-4.87 1.02-3.99-4.47-11.8-7.84-14.5-2.32-1.84-3.9-3.19-5.85-3.28zm320 6.25c-1.82 0.0225-3.59 0.496-4.87 1.54-3.14 2.57-4.04 9.48-0.857 12.3 3.19 2.83 10.5 1.25 13.1-1.59 2.55-2.84 2.2-7.33-0.381-9.86-1.53-1.51-4.31-2.44-6.98-2.4zm-39.3 8.43c-2.28-0.0209-4.69 0.909-5.85 2.33-1.86 2.27-0.941 6.16 1.09 8.1 2.03 1.94 6.12 3.16 8.57 1.11 2.45-2.05 2.44-8.26-0.149-10.4-0.971-0.796-2.29-1.15-3.66-1.16zm-282 20.3c-3.05 0.0121-6.31 0.98-6.5 2.82-0.272 2.68 4.49 1.38 6.03 2.54 1.54 1.16 1.38 3.22 3.11 3.94 1.74 0.725 4.94 1.71 6.16-0.571 1.22-2.28-1.96-6.88-5.1-8.15-0.981-0.397-2.32-0.589-3.7-0.583zm-46.7-14.1c-1.59 0.0324-3 0.732-4.33 2.47-2.14 2.78-1.22 10.2 0.687 13.3 1.9 3.16 3.92 5.57 7.46 4.64 3.54-0.928 6.01-7.36 5.68-11.2-0.327-3.82-3.46-7.67-6.41-8.69-1.11-0.382-2.13-0.603-3.08-0.583zm278 24.1c-0.596-4e-3 -1.16 0.0705-1.69 0.236-5.6 1.76-6.98 11.2-3.06 15 3.92 3.81 15.6 2.88 17.4-2.69 1.58-5.05-6.84-12.5-12.6-12.5zm66.7 1.11c-2.72-0.0205-5.98 2.66-7 4.74-1.26 2.57-0.262 6.31 1.83 7.47 2.09 1.16 4.41 0.395 6.2-1.7 1.79-2.1 3.58-8.25 0.729-10-0.534-0.333-1.13-0.481-1.76-0.486zm-268 3.54c-1.88-0.0234-3.6 0.481-4.44 1.81-1.8 2.83 1.93 7.13 4.81 8.81 2.88 1.68 7.97 2.78 9.84 0.112 1.87-2.66-1.24-7.26-4.17-9.05-1.56-0.951-3.91-1.66-6.05-1.68zm-51.4 1.09c-0.172 2e-3 -0.345 0.0101-0.518 0.0198-2.77 0.168-9.16 1.38-8.53 4.86 0.63 3.48 9.5 3.61 12.2 2.37 2.69-1.24 3.15-2.88 2.46-4.69-0.652-1.7-3.02-2.59-5.6-2.56zm109 6.36c-0.793 0.019-1.46 0.145-1.95 0.411-3.92 2.12-5.19 4.57-2.95 8.29 2.24 3.72 13.6 5.68 17.5 3.54 3.35-1.82 1.78-7.51 2.36-8.4-2.41-0.775-10.6-3.95-15-3.84zm15 3.84c0.63 0.203 0.877 0.246 0.544 0.0179-0.275-0.188-0.442-0.175-0.544-0.0179zm169-1.17c-1.89-4e-3 -3.75 0.339-5.28 1.12-4.43 2.27-8.54 9.77-6.57 13.7 1.97 3.96 7.75 3.65 11.4 2.96 3.66-0.694 6.73-3.45 8.32-6.15s3.33-5.56 0.967-8.47c-1.55-1.91-5.24-3.18-8.84-3.19zm-206 6.27c-0.701-0.0262-1.35 0.123-1.91 0.502-2.97 2.03-0.555 8.25 1.73 10.1 2.29 1.84 5.58 1.28 7.2-0.0163 1.62-1.29 2.19-2.8 0.958-5.16-0.999-1.92-4.94-5.3-7.98-5.41zm-65.3-2.52c-4.23-0.0231-9.71 1.27-10.8 4.99-1.38 4.58 5.74 9.89 9.64 11.8 3.89 1.93 7.81 2.71 10.6 0.517 2.77-2.2 2.69-7.21 1.39-10.4-1.3-3.22-3.99-5.98-8.12-6.69-0.774-0.132-1.68-0.209-2.66-0.214zm234 3.07c-3.57-3e-3 -9.09 3.74-10.3 7.62-1.24 4.01 0.8 9.95 4.55 11.7 3.75 1.74 9.04-0.524 11.3-3.41 2.3-2.89 1.49-7.64 0.335-10.4-1.15-2.8-2.04-5.19-5.59-5.44-0.111-9e-3 -0.224-0.0126-0.339-0.0127zm-58.9 10.1c-0.194-6e-3 -0.386 3e-3 -0.573 0.0288-2.99 0.418-7.3 6.7-7.3 6.7s4.77 4.3 7.83 3.75c3.05-0.549 6.56-6.99 6.56-6.99s-3.6-3.41-6.51-3.5zm-109 5.54c-0.787-0.0187-1.48 0.172-2.02 0.69-2.17 2.07 0.564 5.26 1.76 7.62 1.19 2.36 2.83 5.22 5.23 6.17 2.4 0.954 6.31 1.51 7.22-0.684 0.905-2.19-6.06-2.67-5.11-5.43 0.954-2.76 10.2 1.16 10.5-2.15 0.278-3.3-6.28-2.6-9.56-3.52-2.46-0.694-5.66-2.64-8.02-2.7zm-30.7 1.95c-1.13 3e-3 -2.17 0.26-2.94 0.913-2.45 2.09-1.49 7.65 0.35 9.33 1.84 1.68 3.39 0.511 5.47 0 2.07-0.511 5.81-1.47 6.44-3.41 0.63-1.94-0.37-3.22-2.45-4.64-1.43-0.971-4.38-2.2-6.87-2.2zm82.2 0.987c-2.02-0.02-4.01 0.293-5.38 1-3.68 1.9-7.52 7.45-5.14 10.2 2.39 2.79 6.87-1.37 10.5-2.35 3.63-0.976 12.1-0.809 11.2-3.55-0.836-2.74-6.38 0.606-7.51-0.816-1.13-1.42 5.31 0.636 3.96-1.93-0.844-1.61-4.29-2.57-7.65-2.6zm114 4.31c-0.553 0.0101-1.23 0.105-2.11 0.178-2.83 0.233-8.16 3.83-9.6 6.38-1.44 2.55-1.87 4.18-0.15 6.26 1.72 2.08 6.34 3.95 9.87 2.09 3.53-1.85 5.93-9.78 4.68-12.6-0.861-1.94-1.47-2.33-2.69-2.31zm-53.3 1.71c-2.4 0.0149-4.57 0.35-5.8 1.29-3.95 3.01-2.6 12-2.6 12s8.11 2.76 12.2 0.726c4.07-2.03 7.89-12.6 7.89-12.6s-6.39-1.51-11.7-1.48zm-138 5.65c-1.93 0.0222-3.55 0.533-4.21 1.84-1.74 3.49 4.39 6.28 7.46 7.69 3.07 1.42 7.66 3.05 9.44 0.699 1.78-2.35-0.444-5.67-3.49-7.69-1.9-1.26-5.98-2.58-9.21-2.54zm80.8 1.74c-3.05-0.0289-6.06 0.699-7 2.63-1.66 3.44 2.64 7.01 6.08 8.34 3.44 1.32 9.87 0.813 11.4-2.13 1.49-2.94-0.935-5.97-4.23-7.62-1.44-0.723-3.83-1.2-6.2-1.22zm-25.6 5.24c-2.11-0.0157-4.13 0.577-5.33 2.11-2.57 3.28 0.0719 11.1 3.87 12.9 3.8 1.75 8.84-1.02 10.4-4 1.57-2.98 0.339-7-2.54-9.06-1.53-1.09-4.02-1.89-6.41-1.91zm60.3 8.06c-3.45 8e-3 -6.91 0.718-8.19 1.91-2.58 2.39-1.94 2.61 0.0381 5.05 1.98 2.44 10.3 5.34 13.6 3.57 3.39-1.77 5.11-4.98 2.63-8.23-1.24-1.62-4.67-2.32-8.12-2.31z" fill="#fff" stroke-width="2.84"/>
</svg>