<?xml version="1.0" encoding="UTF-8" standalone="no"?>
<!-- Created with Inkscape (http://www.inkscape.org/) -->

<svg
   width="512"
   height="512"
   viewBox="0 0 512 512"
   version="1.1"
   id="svg5"
   xml:space="preserve"
   inkscape:version="1.2.2 (b0a8486541, 2022-12-01)"
   sodipodi:docname="portal.svg"
   xmlns:inkscape="http://www.inkscape.org/namespaces/inkscape"
   xmlns:sodipodi="http://sodipodi.sourceforge.net/DTD/sodipodi-0.dtd"
   xmlns="http://www.w3.org/2000/svg"
   xmlns:svg="http://www.w3.org/2000/svg"><sodipodi:namedview
     id="namedview7"
     pagecolor="#505050"
     bordercolor="#eeeeee"
     borderopacity="1"
     inkscape:showpageshadow="0"
     inkscape:pageopacity="0"
     inkscape:pagecheckerboard="0"
     inkscape:deskcolor="#505050"
     inkscape:document-units="px"
     showgrid="false"
     inkscape:zoom="1.3932941"
     inkscape:cx="114.11805"
     inkscape:cy="231.82471"
     inkscape:window-width="1920"
     inkscape:window-height="1011"
     inkscape:window-x="0"
     inkscape:window-y="0"
     inkscape:window-maximized="1"
     inkscape:current-layer="svg5" /><defs
     id="defs2" /><circle
     style="opacity:1;fill:#a7cb54;fill-opacity:1;stroke-width:3.18493"
     id="path1983"
     cx="256"
     cy="256"
     r="256" /><path
     id="path2330"
     style="display:inline;opacity:1;fill:#208d45;fill-opacity:1;stroke:none;stroke-width:3.09958"
     inkscape:label="dark_green"
     d="m 226.28322,69.003295 c -3.4624,-0.04776 -5.83432,0.413611 -5.66389,2.039137 0.38956,3.715482 10.00996,0.364616 13.24765,2.804333 3.23766,2.439714 0.48161,7.909325 4.57603,9.730722 4.0944,1.821397 12.05691,-5.857443 16.69481,-3.746756 4.63793,2.110687 3.27143,8.237443 8.1892,11.949169 4.91781,3.711723 38.45226,9.96967 40.63549,4.017806 2.18323,-5.951862 -23.92317,-16.753736 -34.16303,-20.405953 -10.23986,-3.652212 -19.0209,-4.44407 -27.84681,-5.070734 -4.96456,-0.352496 -11.21775,-1.256314 -15.66945,-1.317724 z M 189.382,86.523601 c -3.05517,-0.03171 -8.85084,4.9006 -11.82386,5.983966 -3.52358,1.28399 -8.05054,2.187172 -8.05054,2.187172 0,0 8.10614,8.343641 12.79258,6.186221 4.68642,-2.157434 10.65254,-11.19657 8.46068,-13.771473 -0.34248,-0.40233 -0.81309,-0.580016 -1.37886,-0.585886 z m 142.94293,4.645392 c -1.83192,0.18695 -3.20711,0.915557 -3.87292,2.414437 -2.66324,5.995446 16.10217,11.77833 16.59325,15.08086 0.49107,3.30241 -5.27226,3.72236 -4.37683,7.43304 0.44772,1.85521 8.80136,2.25074 17.12839,6.74708 8.32703,4.49621 16.6267,13.09429 21.77278,22.27203 10.29205,18.35547 8.26342,45.71792 8.26342,45.71792 0,0 -5.33277,-12.2118 -5.7049,-16.69256 -0.37214,-4.48062 1.48628,-9.08228 1.48628,-9.08228 0,0 -20.03193,-27.48466 -31.10062,-34.14822 -7.28626,-4.06595 -10.37333,-1.26825 -20.17713,-4.59744 -9.80379,-3.32919 -28.58032,-14.8607 -37.76058,-17.31389 -9.18025,-2.45319 -10.04971,-0.11836 -15.62842,-1.41989 -5.57883,-1.30154 -5.86781,-6.32958 -17.47994,-6.71372 -11.61213,-0.38414 -22.71278,13.64366 -32.99901,12.59969 -10.28622,-1.04398 -11.0573,-11.80227 -18.09906,-10.18734 -7.04175,1.61493 -20.66691,7.09348 -27.85071,11.37996 -7.18393,4.28649 -9.14329,8.79374 -15.52493,12.69977 -6.38175,3.90616 -18.53102,5.54287 -22.75713,9.91212 -4.22598,4.36926 -1.69396,7.20734 -4.36704,10.45214 -2.67321,3.24467 -11.57973,5.81925 -11.57973,5.81925 0,0 -16.91461,0.64072 -22.08332,5.78589 -5.16877,5.14505 -10.1792,18.88059 -11.071936,26.40868 -0.892736,7.5281 -8.995135,9.66653 -6.298637,15.97323 2.696497,6.30683 17.148533,-4.92411 18.253353,-0.56086 1.10483,4.36324 -10.017145,18.33403 -14.423391,24.64685 -4.406234,6.31295 -9.672411,10.49877 -11.257471,13.63802 -1.585072,3.13926 -14.009014,39.47404 -12.235958,47.49436 1.773043,8.02019 10.480151,25.73313 10.480151,25.73313 0,0 12.26768,-43.22176 17.28854,-42.68215 5.020859,0.53961 -6.281658,40.63 -0.332021,55.04625 8.58964,20.81308 16.94067,21.50696 22.39972,31.51694 5.45892,10.00998 9.24835,21.99964 11.50355,30.47862 2.25532,8.47886 3.05851,20.10988 3.05851,20.10988 0,0 6.05735,1.32098 9.25558,3.34226 3.19811,2.02141 7.36509,8.29096 9.22823,9.04893 1.86313,0.75798 4.44713,-1.74515 4.44713,-1.74515 0,0 -5.86786,-14.38714 -6.95682,-22.12816 -1.08895,-7.74116 0.56835,-23.61895 0.56835,-23.61895 0,0 8.03075,18.21271 13.57966,26.95496 5.5488,8.74211 18.03226,21.59412 18.85099,23.84412 0.81874,2.25013 4.59557,3.12125 4.59557,3.12125 0,0 4.31575,-6.05589 9.90204,-5.16456 5.5864,0.89133 8.64985,8.50311 17.53072,12.57884 8.88098,4.07586 28.60322,5.15626 35.98915,8.60274 7.38592,3.44635 12.15146,-2.67866 15.01907,-4.56617 2.86762,-1.88738 -3.08243,-0.3639 3.10929,-3.61331 6.1916,-3.24941 31.51036,-2.90249 36.66295,-3.38396 5.15246,-0.48148 9.51272,-2.57587 10.35516,-4.98526 0.84243,-2.40926 -5.06562,-5.25912 -3.68153,-8.94259 1.38397,-3.68332 9.58103,0.98616 13.88043,1.05293 4.29953,0.0668 8.14724,-1.73963 12.48205,-1.18011 4.33469,0.55952 8.31335,5.04022 13.5074,3.78638 5.19393,-1.25385 7.15994,-8.41926 7.15994,-8.41926 0,0 7.06191,-2.64137 6.55059,-8.1211 -0.51133,-5.47984 -13.57666,-1.66009 -14.0406,-4.02615 -0.46394,-2.36606 5.37366,-2.94227 9.62862,-4.54948 4.25484,-1.60721 8.49388,-5.36055 8.49388,-5.36055 0,0 10.53716,-1.79872 17.41549,-5.7567 3.43921,-1.97899 13.59531,-10.12698 17.91156,-12.96457 4.31638,-2.83758 7.18534,-3.09207 7.18534,-3.09207 0,0 2.4545,-6.83941 6.70877,-15.76681 4.2544,-8.92738 10.16129,-18.30399 12.90196,-27.71598 4.58858,-15.75841 12.01329,-32.41685 11.11295,-49.35 -0.90035,-16.93327 -12.31439,-42.37299 -12.49963,-46.62074 -0.18523,-4.24762 0.25238,-6.45087 -0.83981,-7.04523 -1.09231,-0.59438 -3.59823,0.87496 -3.80654,5.59824 -0.20818,4.7234 9.48983,25.19497 10.1833,34.63403 0.69346,9.43905 2.65547,20.5989 -2.57415,20.46433 -5.2296,-0.13457 -8.50444,-27.59159 -14.64603,-39.96539 -6.14172,-12.37367 -5.45439,-33.02807 -7.16972,-38.33699 -1.7152,-5.30906 -6.15537,-6.78781 -8.92355,-11.34661 -1.38414,-2.27946 -2.00988,-6.2023 -3.40224,-9.53057 -1.39236,-3.32815 -3.55124,-6.06194 -4.15808,-8.15654 -1.21364,-4.18921 8.75693,-7.00114 8.5681,-11.14227 -0.18882,-4.14112 -10.90006,-23.44171 -10.90006,-23.44172 0,0 -8.2357,0.81952 -11.94299,-5.71917 -3.70743,-6.53857 -7.62315,-8.79164 -8.81615,-12.12639 -1.19299,-3.33476 11.89391,-2.59945 11.95472,-4.1575 0.0608,-1.55805 -20.33147,-16.1999 -29.58113,-20.199554 -6.93722,-2.999669 -16.55009,-7.31208 -22.04622,-6.751243 z M 155.54708,108.11176 c 0,0 -25.89677,17.02824 -24.76683,19.75751 1.12993,2.72927 4.43379,1.97985 6.44708,1.07586 2.01327,-0.90399 2.63972,-2.8674 5.18734,-5.36472 2.54762,-2.49732 8.66612,-6.20076 10.80436,-9.11981 2.13821,-2.91902 2.32805,-6.34884 2.32805,-6.34884 z m 88.27077,11.33408 c 6.81792,-0.3607 13.15853,6.90729 26.94255,7.54981 13.78389,0.64252 22.88965,-4.61774 32.82517,-0.88613 9.93552,3.73173 24.37541,20.28187 21.86653,23.69193 -2.509,3.41006 -10.45941,-7.8742 -14.58159,-4.10121 -4.12229,3.77312 7.07118,14.2319 0.95504,18.04155 -6.11601,3.80978 -15.97997,-9.78075 -15.97998,-9.78075 0,0 -1.65141,4.14633 -5.55648,4.83096 -3.90494,0.68462 -16.50016,5.29103 -12.59726,12.96039 3.90277,7.66935 9.3581,0.77005 13.05429,1.66383 3.69606,0.89391 5.28545,4.02355 9.26143,4.40353 3.9761,0.38011 6.18354,-7.08381 13.41561,-3.51323 7.23208,3.57059 7.01227,10.96401 10.82976,17.80804 3.81736,6.84403 9.27685,17.47249 10.77311,23.16233 1.49615,5.68972 -0.13688,4.05234 1.52729,9.05726 1.66417,5.00505 10.6831,13.04579 12.72813,18.51694 2.04515,5.47128 4.16869,9.92347 1.4609,12.2786 -2.70768,2.35501 -6.22243,-5.38564 -10.29461,-2.21427 -4.07218,3.17136 9.74351,22.38879 -8.69505,42.67589 -18.3887,16.86404 -56.42798,30.55368 -56.42798,30.55368 0,0 33.79483,-25.0591 30.4151,-31.90475 -3.37986,-6.84578 -13.31275,4.84042 -19.26114,9.47843 -5.9485,4.63813 -15.45497,11.39383 -22.67705,13.78189 -7.22198,2.38806 -16.08801,2.25708 -20.17126,-0.2648 -4.08338,-2.52188 -0.21537,-17.1321 -4.05066,-23.26241 -3.83542,-6.13042 -12.73551,-2.18944 -15.17728,-8.64861 -2.44178,-6.45902 6.69683,-15.22277 3.89246,-21.02728 -2.80436,-5.80464 -12.48921,-7.63773 -15.32181,-7.4956 -2.83246,0.14212 -1.84914,2.01741 -2.79873,4.27635 -0.94959,2.25894 -4.5931,6.68323 -4.59361,10.42712 -5.1e-4,3.7439 6.09348,12.88183 9.78095,17.22632 3.68735,4.34448 10.63835,7.74371 10.63835,7.74371 0,0 -13.94101,-1.54834 -19.14981,-3.98445 -5.20892,-2.43598 -9.86483,-3.93193 -11.71254,-7.49351 -1.84769,-3.56145 1.46486,-5.28903 -0.67576,-10.54387 -2.14073,-5.25497 -15.99358,-8.69551 -16.90378,-16.77388 -0.91021,-8.07835 6.60053,-16.61843 10.89225,-21.19409 4.2916,-4.57553 9.17639,-9.22715 13.11288,-8.68196 3.93637,0.5452 3.23699,4.97688 6.09746,4.86849 2.86059,-0.10837 2.70082,-3.07922 5.62093,-4.76841 2.92012,-1.68918 7.85328,-2.54899 11.52505,-5.08532 3.67175,-2.53634 5.23813,-7.73477 9.4958,-8.17531 4.2578,-0.44054 6.46388,6.07408 11.88441,6.69078 5.4204,0.61669 6.91576,-6.76365 15.76124,-7.5915 8.84548,-0.82798 21.00282,2.68924 19.82557,9.24699 -1.17724,6.55788 -12.3587,-0.34388 -18.08343,1.66384 -5.72485,2.00772 -17.79014,4.67828 -15.35892,10.02888 2.43123,5.35059 8.84699,0.027 13.25937,-0.49623 4.41227,-0.52313 11.68142,-0.17386 13.90973,3.45485 2.2283,3.62883 -4.7139,8.19483 -2.99991,12.64973 1.71399,4.45503 13.00134,5.92063 12.59142,10.76489 -0.40992,4.84414 -5.51485,10.35412 -10.43718,9.88292 -4.92245,-0.4712 -17.42755,-2.50047 -18.58147,-8.28581 -1.15393,-5.78522 8.04315,-5.9837 7.90015,-10.10185 -0.143,-4.11804 -5.40631,-6.48699 -8.59544,-7.04524 -3.18925,-0.55825 -13.49292,3.18043 -14.32575,8.67363 -0.83282,5.49332 7.85464,7.27115 9.63253,12.27443 1.77778,5.00314 -3.47957,11.94487 0.16992,14.87235 3.64937,2.92747 8.14473,-3.36873 11.03481,-2.32478 2.89022,1.04383 2.37695,4.44701 5.44516,5.07281 3.0681,0.62581 5.34481,-6.9836 10.04267,-6.59904 4.69773,0.38457 7.43528,10.53053 12.26524,10.96922 4.82996,0.43868 7.94918,-4.09047 11.28677,-6.45101 3.33759,-2.36055 7.80908,-1.27006 8.28491,-6.87844 0.47584,-5.60838 -6.95604,-10.56913 -6.1756,-14.88277 0.78056,-4.31352 12.198,-0.59334 14.38042,-8.00433 2.18256,-7.41111 -4.16002,-14.22392 -4.16002,-14.22392 0,0 -5.94491,-20.70048 -15.7339,-28.53121 -9.789,-7.83086 -18.87231,-13.34121 -20.32165,-17.78928 -1.44934,-4.44794 0.17948,-7.31755 -2.79094,-9.35334 -2.97042,-2.03567 -8.00635,2.72971 -13.441,3.4632 -5.43451,0.73338 -8.523,-0.0582 -12.62071,0.26271 -4.09758,0.32095 -8.84397,4.24481 -10.09149,1.67843 -1.2474,-2.56627 4.81748,-16.41666 11.58754,-19.17997 6.77017,-2.76342 17.51109,-1.17475 16.25147,-9.77242 -1.25963,-8.59768 -9.65622,-4.52511 -14.81597,-3.16921 -5.15962,1.35589 -10.23377,-0.15269 -14.55229,2.57916 -4.31863,2.73171 -9.2381,9.06443 -12.31017,4.1429 -3.07208,-4.92165 4.8791,-6.23197 6.15997,-10.00178 1.28087,-3.76968 5.87451,-9.0778 1.14645,-12.79359 -4.72796,-3.7158 -7.7511,0.16335 -12.62657,3.74467 -4.8756,3.58144 -10.12742,1.78776 -15.24954,6.33633 -5.12224,4.54858 -7.42536,9.95155 -12.83555,8.31084 -5.41008,-1.64084 0.3083,-8.78059 -5.19906,-9.32207 -5.50725,-0.54148 -28.19446,30.94567 -28.19446,30.94566 0,0 -3.27029,-6.0572 2.90421,-14.50121 6.17437,-8.444 22.04336,-29.8025 31.61232,-32.77838 9.56896,-2.97577 11.12026,2.26883 15.85303,0.70681 4.73291,-1.56201 7.53234,-10.33298 12.05628,-11.56552 4.52406,-1.23254 7.32304,1.50964 11.46645,1.23641 4.14342,-0.27324 5.48628,-2.84604 12.30432,-3.20675 z m 81.86666,11.68438 c 0,0 26.61571,4.86657 34.67668,30.01366 8.061,25.14707 -4.60533,37.62185 -4.60533,37.62185 0,0 -0.7192,-12.41281 -4.04283,-16.08582 -3.32365,-3.67302 -9.25881,-0.22777 -11.62661,-4.14917 -2.36779,-3.92139 -4.03059,-10.5677 -3.50185,-14.59921 0.52875,-4.03151 5.35778,-4.38967 2.12885,-12.40161 -3.22896,-8.01195 -13.02891,-20.3997 -13.02891,-20.3997 z m -170.23118,30.28262 c 0,0 1.18479,7.7049 -6.07012,11.86578 -7.2549,4.16082 -13.81563,21.85196 -17.94282,27.73891 -4.12722,5.887 -6.13653,8.08983 -6.13653,8.08983 0,0 -1.70211,14.38694 -4.63853,23.25198 -2.93642,8.86504 -13.84724,29.10668 -13.84724,29.10668 l -1.85346,-3.50907 c 0,0 9.19402,-64.46871 13.01328,-70.57953 3.8192,-6.11081 11.84561,-2.09247 14.06011,-5.94643 2.21457,-3.85401 2.66233,-6.23207 6.30255,-10.01428 3.64022,-3.78227 17.11276,-10.00387 17.11276,-10.00387 z m 216.82938,18.82761 c 0,0 0.79616,0.36659 1.87885,7.05149 1.08271,6.68492 -1.32926,24.55683 2.04681,33.30171 3.37608,8.74491 6.44741,13.15854 7.07205,24.21109 0.62467,11.05255 -7.38435,33.9338 -6.95291,40.39907 0.43144,6.46531 11.06204,7.58041 7.01932,24.76988 -4.04269,17.18944 -14.22717,13.1967 -18.5092,18.28967 -4.28206,5.09294 0.8109,9.63374 -3.32608,13.20226 -4.13697,3.56847 -32.43364,13.7766 -39.01835,15.93361 -6.58468,2.15702 -12.40391,1.38861 -12.40391,1.38861 0,0 2.66198,-2.24633 8.9919,-6.01941 6.32995,-3.7731 17.24164,-7.12633 29.4913,-15.53329 12.24966,-8.40699 20.33586,-33.34693 15.26126,-35.66194 -5.07462,-2.31504 -9.32358,11.96399 -19.77674,17.02199 -10.45317,5.05797 -14.66929,5.98724 -19.28653,6.17787 -4.61727,0.19063 -5.17077,2.22492 -7.47048,2.72719 -2.29969,0.50229 -5.54281,0.0792 -5.54281,0.0792 0,0 25.11737,-10.04016 35.59268,-26.62136 10.4753,-16.58116 11.51723,-34.57981 11.51723,-34.57981 0,0 5.26942,4.12099 8.59349,3.76344 3.32412,-0.35756 -0.74481,-25.68895 -0.0117,-40.69724 0.73307,-15.00828 4.83384,-49.20406 4.83384,-49.20406 z m -191.5567,10.81492 c 1.00945,-0.0877 1.83071,0.0719 2.41594,0.54211 4.68184,3.76131 -4.11544,12.60496 1.50581,15.40402 5.62128,2.79908 9.98423,-6.15492 16.70263,-7.77291 6.71835,-1.61796 16.14451,-1.15945 22.40557,-0.40865 6.26102,0.75081 16.32572,-1.56658 15.6089,4.33263 -0.71683,5.89922 -15.09252,2.58989 -28.50304,5.98815 -13.41057,3.39824 -28.96674,18.71773 -32.958,17.03658 -3.9912,-1.68116 0.28491,-11.71028 -3.32411,-12.7373 -3.60899,-1.02703 -4.03394,3.87943 -6.98611,6.18412 -2.95221,2.3047 -10.10729,3.71743 -10.82976,7.42054 -0.72246,3.70315 4.18102,9.85494 1.36519,12.9333 -2.81582,3.0783 -14.40581,14.63048 -14.40581,14.63048 0,0 6.85499,-2.11171 8.51732,2.58332 1.66233,4.69499 -0.82538,25.33366 -2.28509,33.80629 -1.45967,8.47259 -5.89468,14.03655 -5.12874,17.09704 0.76593,3.0605 7.0607,2.15653 10.40593,6.03193 3.34519,3.87543 3.61614,12.45387 7.85718,15.45615 4.24103,3.00224 11.83677,-2.51986 14.35113,2.24138 2.51435,4.7612 6.22721,20.38565 14.12457,30.59329 7.89736,10.20763 32.58496,27.54293 32.58496,27.54293 0,0 -8.824,2.39461 -16.82763,-0.86945 -8.00357,-3.26406 -8.30638,-6.1133 -16.29051,-6.21749 -7.98412,-0.10419 -16.43995,1.97612 -27.86244,-8.21909 -11.42248,-10.19521 -6.88998,-32.91216 -13.25742,-34.81751 -6.36741,-1.9054 -2.74521,10.47068 -7.30251,10.30827 -4.55726,-0.16242 -11.97558,-10.75723 -13.86286,-15.93363 -1.88727,-5.17635 0.251,-5.96275 -0.53318,-11.05678 -0.78419,-5.094 -6.87592,-11.22725 -6.60137,-17.88935 0.27454,-6.6621 7.19255,-13.98506 9.73994,-20.24749 2.5474,-6.26239 9.46068,-11.84369 6.2459,-17.67042 -3.21474,-5.82678 -13.70691,12.27084 -18.91153,4.87265 -5.2046,-7.39814 6.21405,-21.70256 11.3434,-28.91485 5.1294,-7.21234 13.64025,-12.8794 15.45853,-18.70877 1.81826,-5.82933 -5.31847,-12.51871 3.8905,-16.59872 8.05784,-3.57006 24.2806,-16.32872 31.34671,-16.94277 z m 219.83124,11.29865 c 0,0 5.22824,6.99896 7.03885,14.34485 1.8106,7.34577 0.88278,29.3673 0.88278,29.3673 l -11.77113,-42.42571 z m -43.36197,0.83401 c 0,0 4.81069,10.70616 5.39046,18.20835 0.57976,7.50215 -3.44326,25.81029 -3.44326,25.81029 0,0 -3.32726,-17.69634 -3.53504,-25.08888 -0.20779,-7.39253 1.58784,-18.92976 1.58784,-18.92976 z m 34.73723,30.86225 c 0,0 11.59348,30.80633 8.15014,46.46435 -3.44333,15.65806 -10.25946,14.64508 -10.25946,14.64508 0,0 1.97223,-14.42132 2.43353,-24.62183 0.46131,-10.2005 -0.32421,-36.4876 -0.32421,-36.4876 z m 17.40572,22.95174 c 0,0 10.05672,12.58273 12.55626,20.41222 2.49955,7.82937 2.0332,19.5501 3.07608,25.18061 1.04288,5.6304 3.05096,7.56939 3.07804,12.66015 0.0271,5.09087 -1.6921,17.49833 -9.87081,26.72769 -8.1787,9.22937 -27.28432,32.25088 -27.28432,32.25088 0,0 -7.6046,2.77785 -12.06409,5.16038 -4.45939,2.38265 -8.58119,6.91767 -14.45464,9.39713 -5.87355,2.47946 -13.52399,1.44186 -20.52868,4.58284 -7.00468,3.14087 -11.28489,10.60985 -22.07941,15.58125 -10.7945,4.9714 -48.01613,3.45902 -48.01613,3.45902 0,0 29.8027,-7.60292 33.7939,-10.57306 3.99131,-2.97025 7.44506,-8.83639 13.49373,-12.20145 6.0488,-3.36506 13.91402,-1.86603 22.88213,-5.78173 8.96811,-3.91558 22.27629,-15.66101 29.62215,-19.13201 7.34596,-3.471 9.63577,-1.07157 13.01523,-4.13457 3.37946,-3.06288 1.46969,-6.57323 5.68928,-12.5017 4.2197,-5.92835 14.25502,-8.0527 21.60677,-20.37467 7.35185,-12.32197 1.98424,-34.52228 0.74802,-46.36845 -1.23621,-11.84616 -5.26351,-24.34453 -5.26351,-24.34453 z m -222.6456,30.55369 c -1e-5,0 14.58092,31.71734 20.11853,37.71566 5.53756,5.99835 4.61233,13.60995 10.86685,14.6847 6.25456,1.07479 9.9879,-1.18392 17.56783,1.94114 7.57993,3.1251 9.26243,12.80828 18.73381,14.73682 9.47139,1.92855 20.48796,-5.44443 30.77251,-9.15734 10.2845,-3.71295 22.77451,-6.79189 32.99314,-9.84123 10.21863,-3.04938 26.52849,-12.04091 26.52849,-12.04091 0,0 -8.59373,11.90162 -17.41353,15.30603 -8.81981,3.4044 -22.44632,6.84838 -32.69628,11.85742 -10.24997,5.00908 -16.57618,17.65398 -26.86833,20.30588 -10.29214,2.65186 -17.85479,-6.43041 -24.52855,-6.55318 -6.6738,-0.12276 -6.66388,2.61442 -9.85908,1.51372 -3.19516,-1.10071 -3.05534,-3.77504 -7.33181,-7.54564 -4.27647,-3.77057 -14.6072,-7.05094 -20.38805,-11.60722 -5.7809,-4.55633 -4.62959,-13.6204 -7.32986,-21.26915 -2.70027,-7.64875 -8.94928,-22.26657 -10.06414,-27.48663 -1.11483,-5.22002 -1.10153,-12.56007 -1.10153,-12.56007 z m 26.86247,16.62583 c 0,0 11.09921,8.92162 14.88627,12.9187 3.78699,3.99701 8.16771,10.47923 8.16771,10.47923 0,0 -10.13494,-2.27059 -14.32183,-6.27794 -4.18694,-4.00742 -8.73215,-17.11999 -8.73215,-17.11999 z m 190.85359,7.05774 c 0,0 0.87538,12.91626 -5.84552,20.74372 -6.721,7.82756 -19.85096,11.37371 -19.85096,11.37371 0,0 10.02717,-9.29062 15.33937,-14.56167 5.31213,-5.27114 10.35711,-17.55576 10.35711,-17.55576 z m -77.82967,52.89661 c 2.08637,-0.022 3.55458,0.15429 3.55458,0.15429 0,0 -10.23685,7.71855 -16.12842,9.86624 -5.8915,2.14776 -17.41766,6.27129 -18.58733,2.75013 -1.16968,-3.52124 4.14737,-7.44066 6.32208,-8.32752 2.17463,-0.8868 10.30847,0.0317 15.51906,-2.58749 2.93089,-1.47329 6.63754,-1.82749 9.32003,-1.85565 z m -41.93428,19.05486 c 2.79941,0.0211 4.76974,0.93046 4.62291,3.71965 -0.36144,6.86562 -27.90106,13.26738 -35.2255,13.92784 -7.32451,0.66046 -16.01318,-5.76712 -16.01318,-5.76712 0,0 8.8619,-0.9944 14.22027,-2.45822 5.35828,-1.46391 12.76032,-5.79302 18.83537,-6.91805 3.60698,-0.66799 9.46876,-2.53505 13.56013,-2.5041 z m -83.5131,21.46722 c 0,0 20.76246,4.84368 31.29789,5.92559 10.53542,1.08191 31.71388,0.55253 31.71388,0.55253 0,0 -15.97472,8.91471 -33.13572,7.17659 -17.161,-1.73813 -29.87605,-13.65471 -29.87605,-13.65471 z" /><path
     id="path2626"
     style="display:inline;opacity:1;fill:#5cad4a;fill-opacity:1;stroke:none;stroke-width:2.89846"
     inkscape:label="green"
     d="m 50.605906,356.88507 c 0.312903,1.19619 0.641944,2.25616 0.984578,3.12019 2.740786,6.9121 7.55,8.49068 10.117509,12.98145 2.567488,4.49069 1.481614,9.504 5.502025,13.77025 4.020385,4.2662 16.075605,9.77722 20.550307,10.98874 4.474698,1.21151 2.600665,-5.09263 6.558014,0.80791 3.957351,5.90055 3.756703,18.6623 15.267431,25.34128 11.5107,6.67898 25.14793,7.87051 29.44568,17.45832 4.29775,9.58782 -3.3589,7.66897 4.0209,16.47597 7.37979,8.80701 36.31467,15.46282 47.60146,21.10958 11.28677,5.64677 15.0854,14.09581 21.21557,11.61698 6.13008,-2.4788 8.71913,-7.58132 4.32276,-14.72913 -4.39636,-7.14782 -20.14641,4.94842 -33.36338,-7.96326 -13.21697,-12.91169 -37.90463,-55.67625 -37.90463,-55.67625 0,0 8.79238,4.96406 12.1468,10.20587 3.35439,5.24174 7.45193,3.13802 11.76834,9.48644 4.31632,6.34844 25.79247,15.05818 27.88686,23.18793 2.09437,8.12975 15.71585,-0.30188 17.01806,-3.96814 1.30223,-3.66627 -27.21192,-16.41568 -27.92922,-26.13558 -0.71738,-9.7199 -14.0586,-10.64669 -14.03639,-15.09702 0.0222,-4.4504 6.65883,-2.82402 5.4734,-8.57055 -1.18545,-5.7466 -25.62653,-8.30593 -34.67396,-19.40244 -9.04748,-11.09644 -11.94577,-16.8793 -18.29388,-23.8384 -6.34809,-6.95917 -16.06471,-10.53131 -19.42934,-17.97217 -3.36464,-7.44086 3.15634,-20.61586 -3.3179,-21.59335 -6.474198,-0.97742 1.55955,13.20284 -2.516095,14.67773 -4.075653,1.4749 -2.71381,-28.21404 -6.714785,-28.84838 -4.000974,-0.63433 -1.949411,11.80255 -6.933357,16.04058 -4.983952,4.23806 20.608387,39.81252 20.608387,39.81252 0,0 -10.448067,-6.73035 -16.65109,-15.62256 -6.203022,-8.89221 -19.334602,-34.81746 -16.45654,-38.86324 2.878082,-4.0457 7.971856,2.72042 10.338328,-0.78083 2.366465,-3.50123 -2.365192,-6.39149 -3.059606,-12.29645 -0.694415,-5.90496 3.064306,-14.65625 5.710686,-19.91911 2.646358,-5.26293 -1.848634,-9.92023 -1.346829,-17.23853 0.501796,-7.3183 5.076211,-17.5083 5.700943,-26.11453 0.624732,-8.60622 -2.794732,-15.28471 -1.752977,-24.98836 1.04179,-9.70367 4.522306,-31.6527 9.386204,-32.17755 4.863831,-0.52484 3.529571,10.41033 7.417151,9.24873 3.88765,-1.16161 10.84133,-11.32399 11.92546,-15.66796 1.08411,-4.34405 -1.64504,-7.90853 -1.64504,-7.90853 l 6.67011,-4.25901 c 0,0 8.53197,-10.3168 13.2309,-10.84934 4.69899,-0.53257 5.59349,5.61682 8.51025,5.0605 2.91669,-0.55631 3.58775,-2.99939 6.27555,-5.183 2.68781,-2.18361 7.19387,-4.96558 9.87419,-7.88952 2.68037,-2.92403 -0.24151,-3.33901 6.18203,-9.29436 6.42352,-5.95544 17.88368,-5.3311 31.36741,-15.60018 13.4838,-10.269166 32.23006,-20.056489 30.38558,-24.436727 -1.84451,-4.380312 -7.01246,0.454 -20.1207,4.757658 -13.10831,4.303684 -18.92034,12.880159 -23.86416,15.995709 -4.94377,3.11545 -6.91378,0.77959 -7.48534,-0.99043 -0.57157,-1.77004 6.10856,-2.87093 7.27247,-3.59576 1.16392,-0.72482 22.1528,-22.799007 52.56774,-26.185112 30.41494,-3.386107 56.33175,6.854244 72.97918,9.308321 16.64734,2.45402 18.09381,9.56779 25.26752,16.996871 7.17379,7.42907 15.78734,26.68173 17.84664,26.16772 2.05927,-0.51388 -1.58813,-7.50827 1.16363,-9.14401 2.75185,-1.63575 6.25292,5.57294 8.45192,4.95752 2.19902,-0.61542 -6.60842,-14.74579 -10.57218,-21.42303 -3.96374,-6.677236 -6.86345,-14.38361 -13.05894,-18.569498 -6.19553,-4.185794 -14.85075,-4.254762 -23.38415,-9.562659 -8.53332,-5.307916 -7.76646,-9.57513 -17.69629,-11.803121 -9.92977,-2.227909 -8.09323,-6.416499 -15.91255,-10.527678 -7.81937,-4.111084 -36.711,-11.096609 -36.711,-11.096609 0,0 4.63442,-3.847067 9.18282,-5.113584 4.54834,-1.266497 12.41082,0.838705 14.86523,-0.343755 2.45435,-1.182441 1.37364,-4.585893 -0.93301,-5.683651 -2.30672,-1.097738 -15.46459,-1.479416 -22.04966,-1.745832 -6.58508,-0.266406 -19.83515,6.215991 -21.95871,5.229918 -2.12363,-0.985967 -4.51514,-8.5426 -15.52936,-11.333184 -11.01423,-2.790681 -17.82843,3.666071 -21.81442,5.983009 -3.98606,2.316967 -14.97883,3.340662 -19.81217,6.355976 -4.83344,3.015338 -4.02733,6.376298 -9.3218,9.916414 -5.29448,3.540219 -17.6708,1.930499 -19.99591,6.590524 -2.3251,4.660092 4.81263,6.541873 3.34109,9.712246 -1.47148,3.170352 -7.23215,5.143531 -9.99311,3.925836 -2.76097,-1.217693 1.20229,-5.171978 -2.59622,-6.865516 -3.79854,-1.693613 -13.36007,2.128796 -16.42113,6.301092 -3.06115,4.172243 2.90092,10.521834 -0.78581,13.463723 -3.68671,2.941808 -10.65435,-3.057997 -14.61058,-2.350224 -3.956148,0.707752 -7.888148,0.786904 -8.102359,4.573878 -0.214188,3.787048 11.952349,2.904457 9.981267,7.729436 -1.971027,4.824883 -20.608647,24.114789 -25.527317,27.913259 -4.918595,3.79845 -4.232091,-6.68734 -8.500253,-4.40107 -4.268109,2.28626 -6.541343,15.59657 -1.994362,19.29355 4.546993,3.69706 10.547313,-10.49183 16.003325,-4.61674 5.456107,5.87514 -12.537216,12.99528 -13.099312,29.962 -0.562106,16.96671 1.914263,26.43692 -2.765829,29.3251 -4.68012,2.88807 -6.204312,-8.64333 -6.204312,-8.64333 0,0 -7.757097,30.18312 -3.557277,36.64305 4.199824,6.45992 6.803794,-0.55019 8.894392,2.99675 2.090594,3.54694 -3.643542,11.26217 -2.784324,15.50802 0.859237,4.24591 6.182865,4.85757 5.587274,8.59359 -0.595592,3.736 -6.748749,4.52245 -8.604316,9.07687 -1.855587,4.55436 1.479174,10.67898 0.904129,15.68715 -0.575019,5.00825 -4.822649,6.51614 -4.509027,12.43863 0.313639,5.92258 9.328248,12.89724 8.726552,19.43614 -0.601708,6.53882 -6.229401,8.17807 -7.764666,14.32929 -1.535289,6.15115 5.319769,14.86519 1.34123,19.88888 -3.97855,5.02362 -7.38222,3.08507 -7.38222,3.08507 0,0 1.418163,14.9718 3.608511,23.34508 z M 24.377258,233.70447 c 0.622238,2.76504 1.880302,4.65391 4.46247,4.85396 6.885783,0.53347 8.622403,-13.03433 7.094983,-16.90775 -1.527421,-3.87344 -4.609673,1.12962 -6.078957,-2.75734 -1.469281,-3.88693 6.932783,-11.31314 7.552656,-16.65563 0.619875,-5.34247 -3.185588,-7.64851 -2.712294,-13.73468 0.473292,-6.08617 11.778524,-18.01624 7.766028,-21.27008 -4.012499,-3.25383 -4.579815,1.55897 -7.080704,4.322 -2.500884,2.76305 -3.198862,10.9895 -6.085802,12.67247 -2.886938,1.68297 -1.250963,-4.76269 -5.946016,-0.38369 -4.695054,4.379 -1.090524,23.32107 0.02277,32.48251 0.695805,5.72589 -0.0322,12.7698 1.004872,17.37823 z m 100.680892,-11.31 c 0,0 8.28122,-12.09659 14.44594,-17.03454 6.16472,-4.93785 7.7341,-0.54302 11.39635,-1.02912 3.66224,-0.48609 9.04047,-3.63967 11.85296,-6.78729 2.81247,-3.14762 -1.74359,-7.82113 0.60308,-11.79567 2.34671,-3.97447 13.01196,-7.64958 13.01196,-7.64958 0,0 -14.2016,-8.73269 -34.09029,4.84149 -19.88874,13.5741 -17.22,39.45471 -17.22,39.45471 z m 85.71063,242.98428 c 2.11265,6.48203 16.54443,15.05464 24.32563,14.86306 8.58617,-0.21141 11.29131,-9.41336 17.26692,-13.1028 5.97561,-3.68944 18.35707,-9.03127 18.35707,-9.03127 0,0 -17.35771,-3.55089 -23.43385,-2.74523 -6.07612,0.80566 -7.54563,4.07652 -12.23101,4.8918 -4.6854,0.81528 -11.19995,-1.28384 -15.34706,-0.54825 -4.14714,0.73559 -8.47142,-2.80638 -9.17672,3.74061 -0.066,0.61378 0.0205,1.26154 0.23902,1.93208 z m -13.64287,-57.99512 c 1.18689,4.1171 3.43519,9.33146 7.67652,13.72046 8.48261,8.77805 31.20297,26.50856 33.94985,26.91857 2.74692,0.40999 -0.86652,-1.76954 8.99802,-1.65175 9.86455,0.11777 38.84072,4.22849 46.05985,3.884 7.21914,-0.34447 7.78806,-5.62752 19.81295,-5.358 12.02482,0.26952 24.65592,1.53516 36.00029,-2.20437 11.3443,-3.73952 30.35097,-20.29182 30.35098,-20.29182 l -25.40395,6.57734 c 0,0 14.19087,-10.12525 20.5015,-12.76269 6.3107,-2.63747 11.34319,-0.74639 17.26765,-4.8089 5.9244,-4.0625 6.64418,-17.03166 13.6659,-21.86398 7.0218,-4.83234 17.17157,-1.97031 22.83224,-5.52669 5.66069,-3.55639 7.05381,-8.61031 11.05041,-12.22973 3.99662,-3.61939 9.49857,-5.62358 12.56995,-9.34568 3.07143,-3.72211 7.62598,-8.85226 5.64511,-11.34313 -1.98089,-2.49087 -2.9044,-1.19132 -6.35002,0.0603 -3.44555,1.25166 -12.43615,8.7226 -12.43615,8.7226 0,0 14.13996,-20.69174 21.07624,-39.45491 6.93629,-18.76316 7.3579,-43.87418 9.19056,-44.46094 1.83268,-0.58671 3.39309,9.78113 7.01948,10.07975 3.62645,0.29851 4.43787,-22.17018 6.27415,-33.60837 1.83628,-11.43821 7.33908,-16.00476 6.41409,-21.4326 -0.92502,-5.4279 -3.27691,-6.2246 -4.14218,-9.52149 -0.86524,-3.29689 -3.29169,-6.67291 -6.0814,-6.8451 -2.78962,-0.1722 -4.6729,5.15706 -7.50056,6.44059 -2.82766,1.28353 -8.39991,0.17949 -10.07917,3.25428 -1.67936,3.07474 4.13195,4.59765 5.43102,9.94957 1.2991,5.35196 0.52807,12.57245 0.88227,18.00603 0.35425,5.43352 -3.7572,1.22354 -6.46338,3.65085 -2.70612,2.42736 -5.77674,14.30774 -5.77674,14.30774 l -4.07724,-11.8269 c 0,0 -0.87252,-19.12828 -5.06591,-28.65681 -4.19343,-9.52852 -21.39945,-24.99557 -18.95184,-29.04546 2.44755,-4.0498 25.77305,9.46739 29.36577,6.28169 3.59268,-3.18561 -36.78163,-68.66886 -31.08011,-73.16343 5.70153,-4.49459 7.74279,3.75372 13.44281,5.91452 5.69993,2.16083 18.2808,7.43352 18.2808,7.43352 0,0 -4.8862,-14.79847 -8.38834,-20.51436 -3.50219,-5.71586 -10.83008,-4.56866 -11.14164,-15.1003 -0.31149,-10.53167 -20.96639,-21.079893 -20.96639,-21.079893 0,0 9.72497,25.281473 7.85877,29.845973 -1.86614,4.56442 -10.82447,-1.29129 -13.79548,-7.6354 -2.97094,-6.34409 -4.2574,-14.012636 -11.03677,-19.618251 -6.77944,-5.605683 -23.08011,-14.377456 -26.76269,-10.388325 -3.68249,3.989112 7.52523,13.16128 12.88006,18.337786 5.35478,5.17652 13.48019,7.51077 16.94629,14.72032 3.4661,7.20955 4.49199,20.07165 0.0539,24.07819 -4.43793,4.00657 -8.34917,-2.2122 -11.23471,0.2811 -2.88547,2.49335 -1.99076,9.74566 -0.13614,13.29344 1.85461,3.5478 6.82696,-2.90109 10.45943,6.87025 3.63256,9.77134 3.6263,34.75005 6.89943,43.97311 3.27313,9.22306 2.34142,5.71773 7.1307,12.27775 4.78933,6.55999 21.2794,17.49161 23.16676,25.629 1.88734,8.13738 -4.159,9.40698 -4.32951,15.04158 -0.17045,5.63466 5.2608,10.85635 3.96608,17.74524 -1.29472,6.88888 -8.41907,12.80732 -13.60511,27.008 -5.18608,14.20059 -2.6797,28.03693 -8.25489,34.67884 -5.57512,6.64195 -17.56035,-0.045 -22.80645,8.14882 -5.24611,8.19383 -9.20456,12.29955 -18.14941,14.73427 -8.94486,2.43472 -6.19665,19.036 -24.30887,29.25356 -18.11222,10.21756 -31.55736,6.92391 -39.54235,8.58907 -7.98504,1.66518 -6.43664,4.09663 -6.43664,4.09663 0,0 11.4467,4.0635 20.0954,4.85223 8.64871,0.78871 21.05916,0.53183 21.05916,0.53183 0,0 -10.19413,12.1143 -20.70722,15.80646 -10.51308,3.69217 -31.07195,3.66952 -40.77971,0.98559 -9.70774,-2.68395 -8.46426,-3.65775 -16.36962,-8.56287 -7.90544,-4.9051 -10.26213,0.62055 -13.55193,-0.7039 -3.28975,-1.32445 -5.38959,-5.44858 -7.62837,-5.88116 -2.23875,-0.43256 -3.99054,-1.02207 -5.37762,1.38485 -1.38707,2.40692 12.05572,13.51048 4.3779,16.06058 -7.67782,2.55009 -8.30019,-1.84857 -14.86255,-2.97581 -6.5624,-1.12721 -18.3293,2.77672 -24.46237,-2.95244 -6.13312,-5.72912 -11.9218,-19.74803 -11.9218,-19.74803 0,0 0.12593,3.02012 1.31292,7.13716 z M 155.87284,167.24869 c 0,0 30.96373,-4.47964 44.27592,-7.43571 13.31217,-2.95606 34.40068,-12.87001 35.57801,-9.87158 1.17729,2.99829 -1.05487,8.88726 -1.05487,8.88726 0,0 16.00717,-3.39394 33.22869,2.31037 17.22161,5.70428 32.53354,26.58245 32.53354,26.58245 0,0 -0.47379,-3.11242 -1.51113,-5.12493 -1.03735,-2.01261 -2.95989,-2.03341 -4.32766,-6.27239 -1.36775,-4.2389 -3.27704,-7.92673 -10.4183,-16.40249 -7.14133,-8.47573 -20.73061,-8.95942 -20.02668,-14.22996 0.70386,-5.27044 24.61208,-3.80868 35.14873,5.52289 10.53655,9.3316 16.30681,18.64605 21.25221,23.60651 4.9453,4.9604 7.60179,6.8867 7.60179,6.8867 0,0 -0.84199,-5.58693 -4.44071,-11.17531 -3.59876,-5.58847 -19.88456,-29.37659 -24.08052,-32.35134 -4.19606,-2.9748 -6.84125,2.85209 -12.40779,0.11199 -5.56659,-2.73999 -4.72527,-13.15946 -20.80527,-12.74644 -16.0801,0.41295 -14.28973,10.54915 -19.83003,12.51606 -5.5402,1.96689 -27.62852,0.0779 -37.12905,3.33565 -9.50058,3.25762 -12.56044,7.17752 -19.32777,12.42961 -6.76726,5.25209 -23.01993,7.34387 -28.58282,9.96844 -5.56283,2.62444 -5.67628,3.45223 -5.67628,3.45223 z m 59.28557,175.15862 c 2.37496,6.40903 17.74981,18.37375 22.96715,24.98697 5.96258,7.55801 9.95466,-0.6862 15.5241,-0.4111 5.56954,0.27506 12.73813,6.80069 20.3781,9.81364 7.63985,3.01288 23.11653,10.14431 28.23069,3.52161 5.11425,-6.62282 -13.43765,-11.97545 -9.17963,-16.3707 4.25792,-4.39532 10.93607,0.66836 17.0738,1.51521 6.13782,0.84682 14.33986,5.49292 20.2358,4.13355 5.89595,-1.35938 9.67363,-8.49905 13.92319,-10.46106 4.24964,-1.96205 5.49348,-0.16813 9.5281,-3.17384 4.03471,-3.00575 11.36786,-12.45765 10.32437,-16.72642 -1.04351,-4.26886 -10.92151,2.0914 -10.912,-4.27963 0.01,-6.3711 21.04967,-7.6689 26.99179,-20.73997 5.94214,-13.0711 1.92374,-20.41485 -0.0621,-27.84989 -1.98582,-7.43505 0.42642,-8.40657 1.19817,-16.62528 0.77171,-8.21884 -3.61729,-15.82797 -3.61729,-15.82797 0,0 -8.73401,27.11228 -15.60399,36.9148 -6.87,9.80252 -19.56453,17.03415 -23.07304,20.52125 -3.50863,3.48713 3.29511,9.19859 1.77359,13.862 -1.52162,4.66344 -8.95114,6.99348 -11.46921,11.037 -2.51793,4.0436 -0.0902,9.66661 -2.56669,11.11899 -2.47652,1.45239 -8.4948,-1.31556 -16.28189,-0.61734 -7.78722,0.69816 -26.47855,3.39003 -30.15083,6.07035 -3.67237,2.68034 -0.0429,8.53064 -0.0429,8.53064 0,0 -13.11493,-7.95733 -16.53869,-9.82479 -3.42384,-1.86743 -7.52671,4.17391 -10.95227,4.40066 -3.42545,0.22675 -6.52193,-6.07141 -9.30484,-8.25286 -2.78292,-2.18136 -7.18315,-1.38707 -7.22404,-4.98526 -0.0409,-3.59828 9.83976,-2.05979 10.27135,-6.1712 0.43155,-4.11153 -17.00877,-14.83706 -23.46832,-26.45963 -6.45954,-11.62247 -7.30585,-25.76614 -12.64994,-25.00207 -5.34401,0.76406 -0.69985,9.54346 0.27243,15.53601 0.97229,5.99265 3.02349,14.85199 6.18571,20.69504 3.16225,5.84315 12.12557,7.72278 11.14064,13.61796 -0.98485,5.89505 -11.00531,-0.12662 -13.07581,5.12981 -0.25884,0.65706 -0.18478,1.45794 0.1545,2.37352 z m -17.3519,-206.43294 c 0,0 22.7782,-7.09825 31.81631,-9.14164 9.0381,-2.04339 22.15959,-3.70724 22.15959,-3.70724 0,0 -0.88754,-6.5713 -15.47283,-5.97313 -14.5852,0.59816 -38.50307,18.82201 -38.50307,18.82201 z m 100.16878,177.51395 c 0,0 6.42084,-1.76612 10.69457,-4.06552 4.27381,-2.29948 15.42847,-11.64088 21.41319,-16.00016 5.98471,-4.35928 14.20886,-5.48698 16.68858,-11.95605 2.47967,-6.46896 2.66041,-16.85157 4.84445,-21.73402 2.18413,-4.88248 4.55863,-5.40075 4.68982,-8.63273 0.13114,-3.23208 -2.25936,-2.55967 -3.88811,-8.78321 -1.62872,-6.22343 4.34441,-15.44284 -0.65132,-24.35214 -4.99583,-8.90927 -17.6968,-11.71682 -24.74251,-20.01582 -7.04561,-8.29902 -13.60144,-20.11111 -18.87217,-27.47162 -5.27074,-7.3605 -17.91169,-12.45249 -17.91169,-12.45249 0,0 12.10392,12.95824 17.42813,21.70298 5.32412,8.74477 11.26519,19.59061 17.18667,28.23563 5.92141,8.64518 15.2334,17.08307 16.0111,26.34044 0.77769,9.25736 -7.25048,13.16516 -8.01093,20.95704 -0.76037,7.79184 2.1855,10.70948 2.87284,16.77459 0.68742,6.06498 -6.20801,7.05069 -10.01181,13.64329 -3.80366,6.59264 -27.74081,27.8098 -27.74081,27.80979 z m 4.17938,-277.338532 c 0.49322,1.608958 1.78868,3.464877 2.54793,5.501761 1.21479,3.258972 7.12143,4.075794 8.88253,6.48683 1.76111,2.411092 2.32325,6.193022 2.32325,6.193022 -1e-5,3e-6 3.4424,-2.681473 6.09876,-2.547708 2.65641,0.133737 8.64816,1.981096 12.27482,5.525228 3.62662,3.544203 0.0924,10.532999 8.23691,13.645229 8.14453,3.112267 16.9636,3.841575 18.25105,1.040506 1.28745,-2.801079 -7.1377,-9.237535 -4.56965,-12.65152 2.56813,-3.413943 30.98653,7.914836 30.98653,7.914836 0,0 -0.77168,-2.987847 -3.89612,-5.321516 -3.1244,-2.33362 -13.8621,-3.143905 -15.15822,-5.628609 -1.29611,-2.48476 -1.79706,-8.179476 -9.23632,-14.372301 -7.4392,-6.192841 -25.69224,-10.674979 -29.22047,-9.505977 -3.52825,1.168993 -2.20263,-2.091526 -5.45461,-3.15109 -3.25198,-1.059564 -10.54179,4.318968 -14.26804,4.948434 -3.7263,0.62948 -6.01473,-2.754838 -7.53149,-0.69245 -0.56894,0.773437 -0.56281,1.649951 -0.26686,2.615325 z M 427.6436,401.45453 c 0.25327,0.99259 0.67489,1.86405 1.26659,2.52828 3.15571,3.54261 7.68346,-5.67562 12.19894,-2.04853 4.51549,3.62709 4.18986,-6.73276 6.84209,-8.70569 2.6522,-1.97292 7.48079,-0.38406 8.14699,-3.20911 0.66619,-2.82509 -5.88467,-1.87183 -5.85436,-6.46265 0.0304,-4.59082 8.32562,-12.12841 12.86831,-13.83914 4.54265,-1.71071 4.84077,-4.43254 3.56284,-7.85941 -1.27793,-3.42688 -9.8848,8.65345 -15.40812,13.11117 -5.52334,4.45772 -11.70629,11.11206 -17.75668,13.58427 -4.91595,2.00866 -6.96412,8.5996 -5.8666,12.90081 z M 396.60021,271.71458 c 0,0 7.11086,-14.68798 4.16639,-31.03567 -2.94455,-16.34767 -14.8941,-29.01359 -14.8941,-29.01359 0,0 5.97208,19.527 7.76677,29.56673 1.79469,10.03974 2.96094,30.48253 2.96094,30.48253 z m 79.44467,76.83849 c 0,0 9.18982,-7.29105 9.75292,-11.05557 0.5631,-3.76454 -3.18817,-2.22064 -3.36887,-7.40736 -0.18066,-5.18667 6.78924,-14.39269 8.05315,-21.57037 1.26391,-7.17766 -0.18302,-20.71188 -0.18302,-20.71188 0,0 -4.1238,2.76216 -5.51476,4.79244 -1.39097,2.03029 -0.82331,3.50465 -2.5262,7.02324 -1.70287,3.51852 -6.35184,5.27665 -8.44501,13.5841 -2.09312,8.30748 2.2318,35.3454 2.23179,35.3454 z M 454.14534,165.69793 c 0.68855,2.80429 5.14542,2.11446 6.7559,5.09546 1.66243,3.07712 -0.82499,7.98194 1.0684,12.26422 1.89346,4.28232 10.71053,11.61382 10.71053,11.61382 0,0 3.10184,-3.11383 3.08394,-5.97256 -0.0179,-2.85868 -3.93051,-5.78684 -4.91015,-9.2266 -0.97963,-3.43981 0.94804,-6.93939 -0.72268,-10.98875 -1.67071,-4.0494 -10.03704,-11.5309 -10.03704,-11.5309 0,0 -6.45517,5.32813 -6.00244,8.46324 0.0143,0.098 0.0313,0.19162 0.0534,0.28209 z" /><path
     id="path1688"
     style="display:inline;opacity:1;fill:#ffffff;stroke-width:2.84395"
     d="m 291.30699,28.003413 c -1.81186,0.05057 -3.66339,0.657596 -5.06227,1.510768 -2.48691,1.516746 -5.11053,4.423481 -4.05135,7.343161 1.05918,2.919675 6.971,4.318442 9.84469,4.2586 2.87369,-0.05984 4.58212,-0.384638 5.71719,-2.767641 1.13506,-2.382999 0.0498,-7.521994 -2.52638,-9.305898 -1.1271,-0.780458 -2.51266,-1.078325 -3.92188,-1.03899 z m -61.1985,0.444767 c -2.2398,-0.01536 -4.17013,0.317506 -5.20887,1.11822 -3.32401,2.562287 -3.09233,3.801889 -0.32937,6.817364 2.76293,3.015472 14.89482,4.075746 18.0102,1.656623 3.11535,-2.419128 3.10819,-2.661304 0.60351,-5.731556 -1.72196,-2.110797 -8.14795,-3.826858 -13.07547,-3.860651 z m 33.66916,11.715203 c -2.44505,-0.0031 -5.00379,0.527096 -5.8238,2.652398 -1.09334,2.833739 3.2939,6.969699 5.5744,8.473987 2.2805,1.504286 4.79769,0.348971 6.00278,1.17224 1.20505,0.823268 1.96322,0.151908 1.39359,2.28686 -0.56963,2.134948 -9.19238,2.08997 -9.51152,5.551486 -0.31914,3.461518 4.33867,6.074834 8.11793,6.829969 3.77922,0.755133 9.2882,1.227729 11.72376,-3.558139 2.43555,-4.785867 -4.37783,-15.23862 -7.59437,-18.905307 -3.21652,-3.666686 -4.66053,-4.042048 -7.54487,-4.36304 -0.72107,-0.08024 -1.52288,-0.139409 -2.3379,-0.140454 z m -50.11443,5.55509 c -2.88952,-0.03808 -6.05366,0.768995 -7.9618,1.986146 -3.21369,2.049939 -4.276,8.787305 -4.27599,8.787305 0,0 5.21038,3.360107 8.55389,3.523923 3.34349,0.163817 10.25402,-3.077357 10.25402,-3.077357 0,0 1.50925,-7.456012 -1.51545,-9.813689 -1.22879,-0.957805 -3.0776,-1.38027 -5.05467,-1.406328 z m -46.64946,0.145854 c -2.50676,-0.01661 -5.52689,1.069554 -7.33735,2.893689 -2.7588,2.779632 -4.06403,10.208788 -1.66585,12.565123 2.39818,2.356336 5.11084,0.702258 7.33164,-0.603226 2.22077,-1.305483 3.50227,-4.352441 4.31979,-6.736333 0.81752,-2.383891 2.89642,-5.198382 0.62064,-7.134282 -0.78231,-0.665466 -1.9558,-0.976273 -3.26887,-0.984971 z m 122.09812,0.752683 c -0.58442,-0.01641 -1.10924,0.132072 -1.51926,0.527599 -1.64006,1.582103 -0.0632,4.788374 2.02758,6.201532 2.09073,1.413158 7.5903,1.80485 8.55199,-0.243093 0.96169,-2.047939 -1.86684,-2.978262 -3.66677,-4.076732 -1.34994,-0.823852 -3.64032,-2.360035 -5.39354,-2.409306 z m 23.53891,8.043625 c -2.06335,-0.01562 -3.93506,0.51316 -4.93663,1.854697 -2.28929,3.066372 0.92184,7.865117 4.1218,10.067585 3.19993,2.20247 9.92619,3.709501 12.31204,0.66445 2.38583,-3.04505 -0.7795,-8.179744 -4.04182,-10.39891 -1.83505,-1.24828 -4.80249,-2.167743 -7.45539,-2.187822 z m 39.09317,1.717846 c -2.45231,0.03616 -5.12198,0.896613 -6.51109,2.259849 -2.22254,2.181174 -3.43542,6.881589 -0.88527,8.230894 2.55015,1.349305 4.30166,-4.887457 6.98133,-5.040094 2.67968,-0.152638 4.1544,5.01998 6.31119,3.511319 2.15679,-1.508659 0.60943,-6.359095 -2.039,-8.068833 -0.99317,-0.641153 -2.38575,-0.914833 -3.85716,-0.893135 z m -137.12883,7.492616 c -0.43922,-0.0028 -0.8491,0.03956 -1.21274,0.138652 -2.90902,0.792696 -6.29595,6.214137 -6.29595,6.214137 0,0 6.20825,4.048995 9.32496,3.161988 3.11666,-0.887007 5.76288,-7.290941 5.76288,-7.290941 0,0 -4.50435,-2.203896 -7.57915,-2.223836 z m -55.16147,2.998127 c -3.17592,0.03136 -8.28768,0.82279 -10.08648,3.174593 -2.6164,3.420807 -2.42241,10.294348 1.20513,12.919858 3.62756,2.625511 10.72972,1.305872 13.481,-2.272454 2.75127,-3.578324 -1.47518,-12.751143 -1.96095,-13.469063 -0.1518,-0.224351 -1.1951,-0.367185 -2.6387,-0.352934 z m 235.08604,4.929862 c -0.28064,-0.003 -0.55611,0.01482 -0.82437,0.05223 -4.29193,0.598354 -7.01095,5.45794 -7.16981,8.632445 -0.15884,3.174502 2.43252,6.102636 4.6244,6.804758 2.19187,0.702121 2.83788,-1.877095 5.01469,-1.712444 2.17677,0.164653 4.03284,4.694555 6.79856,3.56354 2.76568,-1.131015 3.96855,-5.794543 2.5359,-9.449953 -1.34311,-3.426948 -6.76977,-7.844845 -10.97937,-7.890566 z m -270.02507,2.632982 c -1.81714,0.0099 -3.79222,0.444091 -5.55916,1.001176 -3.53395,1.114167 -8.41147,4.425652 -9.29449,7.415186 -0.88303,2.989538 0.14202,5.056293 2.40834,6.748939 2.26633,1.692646 6.72281,1.66745 9.7533,0.846318 3.03053,-0.821134 5.8567,-2.551932 7.26309,-5.216562 1.40644,-2.664628 2.32485,-6.949949 0.0457,-9.242873 -1.13957,-1.146466 -2.79964,-1.562052 -4.61678,-1.552184 z m 197.97894,0.900338 c -2.05712,0.01436 -4.3438,0.679752 -4.8776,1.818685 -0.81341,1.735514 0.63827,2.502208 2.28079,3.43389 1.64252,0.931681 5.85774,2.099022 7.18503,0.48078 1.32731,-1.618239 0.11021,-4.103075 -1.82957,-5.194952 -0.66681,-0.375334 -1.6811,-0.545924 -2.75865,-0.538403 z m -27.08193,6.876785 c -0.65448,5.48e-4 -1.27672,0.0413 -1.8429,0.124247 -3.01967,0.442428 -6.59957,1.163712 -6.99656,3.387074 -0.39701,2.22336 3.92051,2.458623 4.45305,4.404455 0.53254,1.945832 -3.33457,3.343255 -1.59922,5.76937 1.73534,2.426114 9.84261,3.934484 12.18069,1.445942 2.33804,-2.488539 -4.02751,-5.754858 -2.12468,-8.11925 1.90284,-2.364398 8.94913,2.349609 10.00271,-0.255697 1.05357,-2.605308 -2.87562,-3.723216 -5.58582,-4.99868 -2.20206,-1.036316 -5.65123,-1.75983 -8.48727,-1.757461 z m 58.21521,7.074859 c -1.21868,-0.0076 -2.283,0.321771 -2.99472,1.156036 -2.53052,2.966278 2.1371,8.195605 5.08703,10.049574 2.9499,1.85396 7.60825,2.67901 9.46012,0.43577 1.85184,-2.243239 0.0615,-5.502411 -2.4845,-7.769922 -1.82992,-1.629775 -5.9535,-3.852055 -9.06793,-3.871458 z m -199.68857,0.412357 c -1.08766,0.0239 -2.10485,0.202779 -2.91476,0.552806 -2.59171,1.120089 -4.61474,2.252893 -3.97329,5.872009 0.64145,3.619119 8.57963,10.074068 12.47388,9.336508 3.8942,-0.73756 3.61311,-4.01803 3.84001,-6.552669 0.22691,-2.534629 -0.40875,-5.534376 -2.71676,-7.332349 -1.58676,-1.236107 -4.31623,-1.928874 -6.70908,-1.876305 z m -58.73306,0.734676 c -3.810995,-0.102442 -8.193605,6.336155 -8.028438,9.694847 0.170495,3.46703 3.188151,5.97894 6.189341,5.90802 3.00119,-0.071 5.599538,-3.4467 6.153167,-6.491449 0.55363,-3.044737 -0.05813,-8.529138 -3.948536,-9.080806 -0.121576,-0.01724 -0.242598,-0.0273 -0.365534,-0.03061 z m 307.22773,5.551096 c 0,-2.461794 -5.63128,2.025672 -5.85045,4.154161 -0.22623,2.19716 1.91928,4.00802 4.43782,4.47828 2.51857,0.47027 7.71936,-0.7906 8.11031,-3.49871 0.39094,-2.708119 -3.79352,-5.035003 -6.44827,-5.13013 -0.083,-0.0029 -0.24941,0.07582 -0.24941,-0.0036 z m 33.69909,14.459751 c -3.09259,0.0419 -5.88359,2.25522 -7.18313,4.95726 -1.59946,3.32558 0.59912,8.9928 2.95093,11.60536 2.35179,2.61256 5.6831,4.32269 8.43776,3.33845 2.75464,-0.98422 3.65565,-3.66306 3.72388,-7.24953 0.0682,-3.58645 -1.85611,-11.02155 -5.75527,-12.31302 -0.7311,-0.24215 -1.4605,-0.34821 -2.17417,-0.33852 z m -53.00349,-4.1973 c -0.60368,-0.009 -1.12232,0.13511 -1.51926,0.47897 -3.17544,2.75093 0.95582,6.91286 3.87049,8.48119 2.91463,1.56834 10.26734,-1.25687 10.26734,-1.25687 0,0 -8.3928,-7.63693 -12.61857,-7.70329 z m -274.01397,19.11599 c -2.21379,0.0484 -4.73306,1.296 -6.00847,2.6794 -1.85515,2.01223 -2.72083,5.6238 -0.72726,7.55024 1.99355,1.92644 6.92359,1.49323 9.06411,-0.59603 2.1405,-2.08923 2.70595,-7.01883 0.35602,-8.85572 -0.73435,-0.57403 -1.67812,-0.79989 -2.6844,-0.77789 z m 278.49748,1.8781 c -3.26663,0.0226 -6.44838,1.55105 -8.09507,4.2262 -2.19558,3.56682 -0.33698,9.806 2.55494,13.18994 2.89195,3.38394 8.55593,6.36731 12.40343,4.85643 3.84754,-1.51086 4.82057,-5.98997 4.41307,-10.11619 -0.4075,-4.12621 -3.81938,-10.30153 -8.03415,-11.66299 -1.05369,-0.34036 -2.15334,-0.50093 -3.24222,-0.49339 z m -316.888148,0.14946 c -0.785487,-0.0276 -1.666287,0.12819 -2.684397,0.49159 -3.257945,1.16281 -6.570279,7.7278 -7.013696,11.01833 -0.44342,3.29051 -1.068359,5.37867 2.118959,6.75074 3.187317,1.3721 10.207767,-2.02826 12.340604,-5.32639 2.132838,-3.29815 1.360442,-8.07208 -0.491187,-10.35571 -1.272994,-1.56998 -2.542215,-2.51787 -4.270283,-2.57856 z m 20.10441,5.31559 c -1.859319,0.0212 -3.753145,0.49332 -4.717683,1.19385 -1.929075,1.40107 -0.115143,3.02238 -1.191795,4.93566 -1.076654,1.91326 -5.388338,3.54178 -5.745749,5.79098 -0.357411,2.24918 1.066896,4.57565 2.65203,5.12473 1.585136,0.54908 1.496229,-2.96303 3.750539,-1.55579 2.25431,1.40724 -2.403501,8.87529 -0.116134,11.45229 2.287368,2.57704 5.807799,2.38458 9.111714,1.42976 3.303919,-0.95485 7.467016,-4.34659 8.348276,-7.46922 0.88127,-3.12263 -0.791,-5.99887 -2.5892,-8.16246 -1.798193,-2.16359 -6.293354,-1.6327 -7.289752,-4.03891 -0.996397,-2.40626 3.969938,-4.98554 2.305534,-7.19011 -0.832202,-1.1023 -2.658463,-1.53192 -4.51778,-1.51078 z m 319.197498,7.49982 c -0.93376,0.006 -1.87379,0.25629 -2.76247,0.83012 -3.55461,2.29529 -2.51072,12.51271 0.22086,14.74034 2.73153,2.22761 3.79023,1.02479 6.00086,-0.76169 2.21058,-1.78645 4.81707,-7.2502 3.25935,-10.32508 -1.16832,-2.30613 -3.91733,-4.49944 -6.7186,-4.48369 z m 51.42235,0.80129 c -0.72849,-0.005 -1.40987,0.14602 -1.97427,0.5024 -2.25751,1.42553 -1.1523,5.50921 -0.6473,7.51062 0.50501,2.00143 0.83894,3.54199 2.65774,4.10195 1.81885,0.55995 4.64045,-0.51516 5.90758,-2.30667 1.26713,-1.79153 1.53058,-4.90105 0,-6.88938 -1.14794,-1.49126 -3.75819,-2.9057 -5.94375,-2.91892 z m -10.54338,15.47682 c -3.2301,-8.5e-4 -6.4787,1.11015 -8.35209,3.71301 -3.33048,4.62727 2.32633,13.7025 4.91377,18.51276 2.58747,4.81023 6.14635,9.14055 9.00511,10.20803 2.85872,1.06749 2.9969,1.81452 4.35213,-0.50958 1.35525,-2.32414 -5.90018,-7.40199 -5.29643,-10.66 0.60375,-3.25806 5.0129,-2.11868 6.03893,-5.69915 1.02603,-3.58051 0.38087,-11.05424 -3.81337,-13.72296 -1.83499,-1.16759 -4.33576,-1.84143 -6.84805,-1.84211 z M 67.738712,167.25516 c -0.515192,-0.0101 -1.025155,0.0359 -1.517351,0.14046 -3.937564,0.8358 -6.83811,6.36914 -6.360684,10.091 0.477427,3.72183 3.664766,8.03344 7.982744,7.64747 4.317982,-0.38598 9.016581,-7.42743 8.165513,-11.51893 -0.744682,-3.58009 -4.663884,-6.29666 -8.270222,-6.36 z m -32.816261,5.65954 c -0.709129,0.005 -1.455421,0.1765 -2.238901,0.55461 -3.581621,1.72839 -2.891089,10.16819 -2.236996,13.68874 0.654093,3.52056 1.488413,5.86654 3.859056,6.6607 2.370646,0.79415 4.49975,0.27589 6.53203,-2.52995 2.03228,-2.80585 2.331846,-10.48157 0.279863,-13.72836 -1.603113,-2.53656 -3.662448,-4.66124 -6.195052,-4.64574 z m 433.693629,4.43866 c -0.13616,0.004 -0.27405,0.0158 -0.41313,0.0378 -4.45058,0.70392 -4.25693,10.51402 -1.65823,12.80643 2.59869,2.29235 5.9692,1.59497 7.54106,-1.38293 1.52272,-2.88487 -1.24875,-11.56181 -5.4697,-11.46131 z m 1.69822,55.96324 c -1.87583,-0.0147 -3.66915,0.7128 -5.14415,2.32467 -3.14666,3.43865 -0.22428,12.94293 3.08992,16.14128 3.31419,3.19834 7.18079,5.30255 10.848,2.07078 3.66721,-3.23178 1.32136,-14.5897 -2.4388,-17.82851 -1.99759,-1.72062 -4.22903,-2.69154 -6.35497,-2.70822 z M 38.126591,257.2548 c -1.15323,-0.0125 -2.285123,0.26614 -3.306947,0.86972 -2.97258,1.75588 -3.300853,6.68961 -2.465456,10.35209 0.835398,3.66247 4.306299,8.9993 7.560097,9.47337 3.253795,0.47406 4.3637,-0.82418 5.869497,-3.95069 1.505797,-3.1265 1.256301,-10.83807 -1.41835,-13.73556 -1.755242,-1.90147 -4.03722,-2.98509 -6.238841,-3.00893 z m -4.422589,54.43986 c -2.46862,0.008 -4.009566,2.54038 -4.913777,4.57733 -1.033386,2.32796 -1.368375,6.2476 0.976663,7.88155 2.345039,1.63397 7.162352,1.29286 8.932755,-1.57558 1.770403,-2.86846 -0.748905,-9.83618 -3.879999,-10.72304 -0.391387,-0.11083 -0.762982,-0.16134 -1.115642,-0.16026 z m 443.117578,6.85699 c -0.15622,0.003 -0.31419,0.014 -0.47596,0.0325 -5.17679,0.58718 -7.19484,11.43071 -5.86569,15.48042 1.32914,4.04971 4.24033,5.98738 7.71621,5.26157 3.47587,-0.72582 5.95008,-5.71348 5.79715,-9.76866 -0.14816,-3.92848 -2.32909,-11.09552 -7.17171,-11.00575 z m -418.640078,3.76882 c -3.505296,-0.0664 -5.788696,4.20228 -5.892344,7.28013 -0.103649,3.07786 6.036741,5.01869 5.473501,7.73391 -0.563238,2.71519 -4.720904,1.12561 -6.394953,4.08033 -1.674051,2.95471 -3.574931,9.05443 -0.08757,12.81901 3.487353,3.76461 13.81615,4.90873 18.053988,2.15002 4.23784,-2.75872 4.240155,-8.62454 3.011854,-11.63957 -1.228301,-3.01506 -4.932909,-1.7341 -6.48253,-4.15237 -1.54962,-2.41827 0.120628,-6.3401 -1.151815,-9.50037 -1.272444,-3.16026 -3.02483,-8.70472 -6.530125,-8.77109 z m 385.614388,4.97346 c -0.49967,-0.0203 -0.99509,0.031 -1.47928,0.16387 -5.16456,1.41709 -5.13758,10.64351 -3.61726,14.42342 1.52032,3.77989 4.57031,5.92846 8.17694,5.41643 3.60662,-0.51202 7.63636,-4.39805 7.31449,-8.87913 -0.29168,-4.061 -5.56478,-10.92759 -10.39489,-11.12459 z m -21.26383,23.63388 c -3.57618,-0.066 -9.30064,1.28507 -11.62668,5.5623 -2.4811,4.56237 -0.80907,13.94156 3.33741,17.61242 4.14648,3.67087 12.53396,5.49499 15.06498,1.58999 2.53102,-3.905 -7.75213,-6.76271 -7.64196,-10.97873 0.11016,-4.216 8.15251,-6.67533 7.59055,-9.81367 -0.56194,-3.13837 -2.55599,-3.67519 -6.03893,-3.93989 -0.21769,-0.0166 -0.44696,-0.0281 -0.68537,-0.0324 z m -325.657185,6.00347 c -0.366341,-0.0128 -0.76111,0.0442 -1.189892,0.18186 -4.57366,1.46913 -3.515599,12.9318 -0.06092,16.10886 3.454679,3.17703 10.273327,2.47675 11.872267,-0.35654 1.59894,-2.83327 -2.55299,-4.16763 -4.50064,-6.81196 -1.76506,-2.39642 -2.57951,-8.99887 -6.120813,-9.12222 z M 67.581301,299.38326 c -0.667352,0.0177 -1.31764,0.13575 -1.913346,0.36734 -2.723225,1.05876 -5.502923,4.93805 -4.117977,7.80955 1.384944,2.87152 7.7444,4.15536 10.453912,2.54795 2.709513,-1.60742 3.05205,-5.48432 1.652522,-7.78432 -1.093382,-1.79689 -3.691714,-3.00365 -6.075111,-2.94052 z m 57.991859,61.66436 c -0.88355,-0.0432 -1.84206,0.1742 -2.97758,0.72028 -3.63367,1.74741 -4.23283,11.55695 -4.96328,13.6131 -0.73044,2.05619 10.1395,8.45235 14.42721,8.30113 4.28769,-0.15121 6.17982,-0.88304 7.20407,-4.87444 1.02425,-3.99136 -4.46793,-11.79919 -7.84377,-14.47563 -2.32089,-1.84007 -3.90283,-3.1895 -5.84665,-3.28444 z m 319.74579,6.24655 c -1.82435,0.0225 -3.59446,0.49559 -4.86998,1.54137 -3.13977,2.57426 -4.04324,9.47995 -0.85673,12.31303 3.18652,2.83311 10.53944,1.25445 13.0869,-1.58639 2.54748,-2.84084 2.19639,-7.32643 -0.38075,-9.86411 -1.53019,-1.50674 -4.31307,-2.43676 -6.97944,-2.4039 z m -39.29116,8.42537 c -2.2797,-0.0209 -4.69336,0.90899 -5.85427,2.33007 -1.85749,2.27373 -0.94053,6.16454 1.08708,8.10125 2.0276,1.93673 6.12424,3.16098 8.57484,1.11102 2.45058,-2.04997 2.44167,-8.25552 -0.14851,-10.37911 -0.97132,-0.79634 -2.29134,-1.15064 -3.65914,-1.16323 z m -282.41176,20.25762 c -3.04513,0.0121 -6.31488,0.97995 -6.50157,2.82165 -0.27156,2.67886 4.49081,1.37779 6.02752,2.53896 1.53671,1.16116 1.37761,3.21829 3.11466,3.94349 1.73704,0.72518 4.93751,1.70631 6.15887,-0.57083 1.22137,-2.27711 -1.95783,-6.87927 -5.09654,-8.14986 -0.98083,-0.39705 -2.3188,-0.58892 -3.70294,-0.58341 z m -46.66475,-14.0916 c -1.589106,0.0324 -2.99585,0.73165 -4.33311,2.46692 -2.139615,2.77648 -1.216748,10.1822 0.687282,13.33762 1.904029,3.15543 3.918223,5.57149 7.459192,4.64395 3.540972,-0.92753 6.00972,-7.35774 5.682924,-11.1786 -0.326799,-3.82086 -3.457369,-7.66791 -6.413994,-8.68647 -1.108732,-0.38195 -2.128832,-0.60286 -3.082294,-0.58342 z m 277.83501,24.09436 c -0.59612,-0.004 -1.16345,0.0705 -1.68871,0.23589 -5.60276,1.76243 -6.97838,11.16022 -3.06324,14.97082 3.91512,3.8106 15.61033,2.88491 17.35337,-2.69201 1.57964,-5.05409 -6.83901,-12.47879 -12.60142,-12.5147 z m 66.73673,1.11281 c -2.71593,-0.0205 -5.97784,2.65825 -7.00037,4.74478 -1.2585,2.56805 -0.26211,6.3099 1.83148,7.47102 2.0936,1.16111 4.41183,0.39473 6.19886,-1.70164 1.78704,-2.09637 3.57965,-8.25298 0.72917,-10.02798 -0.53447,-0.33282 -1.13237,-0.48143 -1.75914,-0.48618 z m -268.16731,3.54194 c -1.88378,-0.0234 -3.59662,0.48103 -4.43973,1.80968 -1.7986,2.83441 1.9299,7.12785 4.81287,8.81072 2.88299,1.68285 7.97206,2.77509 9.84088,0.11162 1.86884,-2.66346 -1.23839,-7.26071 -4.16747,-9.0502 -1.55609,-0.95065 -3.9116,-1.65529 -6.04655,-1.68182 z m -51.36144,1.08941 c -0.17158,0.002 -0.34493,0.0101 -0.51784,0.0198 -2.766661,0.16817 -9.159647,1.37986 -8.529149,4.86003 0.630497,3.48017 9.496139,3.61085 12.188299,2.36788 2.69217,-1.24293 3.15103,-2.88 2.45594,-4.68895 -0.65165,-1.69593 -3.02365,-2.59197 -5.59725,-2.55876 z m 109.154,6.35998 c -0.79273,0.019 -1.4613,0.14495 -1.95143,0.41056 -3.92099,2.12486 -5.19393,4.5719 -2.95092,8.29392 2.243,3.72202 13.59342,5.67994 17.53043,3.53833 3.3475,-1.82094 1.77864,-7.50849 2.36075,-8.40016 -2.4094,-0.77535 -10.59036,-3.94816 -14.98883,-3.84265 z m 14.98883,3.84265 c 0.63034,0.20285 0.87741,0.24582 0.54449,0.0179 -0.27473,-0.188 -0.44198,-0.17504 -0.54449,-0.0179 z m 168.59528,-1.17045 c -1.88737,-0.004 -3.75253,0.33915 -5.27551,1.11823 -4.43048,2.26643 -8.54035,9.77039 -6.57392,13.73196 1.96645,3.96158 7.74635,3.65022 11.40392,2.95671 3.65759,-0.6935 6.73299,-3.45232 8.31783,-6.14751 1.58484,-2.69519 3.33051,-5.55773 0.96714,-8.47037 -1.55097,-1.91144 -5.23631,-3.18163 -8.83946,-3.18902 z m -206.33865,6.27177 c -0.70123,-0.0262 -1.35409,0.12258 -1.91143,0.50238 -2.97255,2.02563 -0.55466,8.25263 1.73438,10.08921 2.28904,1.83654 5.57783,1.27755 7.20218,-0.0163 1.62433,-1.29378 2.18662,-2.79638 0.95762,-5.16075 -0.99857,-1.92104 -4.94404,-5.30144 -7.98275,-5.41463 z m -65.32212,-2.51874 c -4.22842,-0.0231 -9.70793,1.27411 -10.82897,4.99147 -1.37974,4.5752 5.74179,9.89069 9.63528,11.82143 3.89347,1.93079 7.80689,2.71398 10.58146,0.5168 2.77455,-2.19714 2.68631,-7.20752 1.38598,-10.42951 -1.30032,-3.222 -3.98908,-5.97934 -8.11601,-6.6859 -0.77381,-0.13249 -1.68194,-0.20893 -2.65774,-0.21429 z m 234.42002,3.07335 c -3.57086,-0.003 -9.09121,3.73913 -10.294,7.62225 -1.24159,4.0084 0.79998,9.94508 4.55205,11.68101 3.75209,1.73593 9.03572,-0.52434 11.33919,-3.41048 2.30348,-2.88617 1.48516,-7.63506 0.33507,-10.43673 -1.15007,-2.80168 -2.04392,-5.18783 -5.59344,-5.44344 -0.11092,-0.009 -0.22369,-0.0126 -0.33887,-0.0127 z m -58.9482,10.13601 c -0.19436,-0.006 -0.386,0.003 -0.57305,0.0288 -2.99276,0.41765 -7.30117,6.70213 -7.30117,6.70213 0,0 4.77227,4.29998 7.82663,3.75081 3.05436,-0.5492 6.55868,-6.98663 6.55868,-6.98663 0,0 -3.59564,-3.41262 -6.51109,-3.49512 z m -108.89698,5.54068 c -0.78721,-0.0187 -1.48013,0.17217 -2.02377,0.68966 -2.17453,2.06999 0.56415,5.25868 1.75533,7.62227 1.19118,2.36358 2.82661,5.22053 5.22601,6.17451 2.3994,0.954 6.31204,1.51048 7.21739,-0.68425 0.90538,-2.19474 -6.06405,-2.66979 -5.10986,-5.43444 0.9542,-2.76467 10.23687,1.15528 10.51484,-2.14821 0.27798,-3.3035 -6.28442,-2.59923 -9.56292,-3.52392 -2.45888,-0.69353 -5.65538,-2.63953 -8.01702,-2.69562 z m -30.68588,1.95373 c -1.13336,0.003 -2.1733,0.26023 -2.9376,0.91296 -2.44577,2.08869 -1.48914,7.65188 0.3503,9.33109 1.83945,1.67921 3.39316,0.51142 5.46589,0 2.07271,-0.5114 5.81457,-1.47316 6.44445,-3.41228 0.62988,-1.93911 -0.37041,-3.22402 -2.45403,-4.63675 -1.43251,-0.97123 -4.3756,-2.20044 -6.86901,-2.19502 z m 82.21105,0.98678 c -2.01741,-0.02 -4.0054,0.2934 -5.38402,1.00477 -3.67634,1.897 -7.52394,7.44958 -5.13844,10.24046 2.38553,2.79089 6.86686,-1.3718 10.4939,-2.3481 3.62704,-0.97628 12.06907,-0.80892 11.23258,-3.54732 -0.83649,-2.73842 -6.37934,0.60592 -7.5125,-0.81571 -1.13316,-1.42162 5.31074,0.63649 3.95997,-1.93212 -0.84426,-1.6054 -4.28917,-2.56866 -7.65149,-2.60198 z m 114.13822,4.30902 c -0.55288,0.0101 -1.22928,0.10537 -2.11325,0.17827 -2.82871,0.23323 -8.15685,3.82983 -9.5972,6.3816 -1.44032,2.55177 -1.86854,4.1809 -0.15039,6.25915 1.71815,2.07823 6.33808,3.94695 9.87134,2.09418 3.53325,-1.85277 5.93003,-9.77875 4.6777,-12.60294 -0.86098,-1.94163 -1.47188,-2.33188 -2.6882,-2.31026 z m -53.32429,1.71424 c -2.39862,0.0149 -4.5669,0.34998 -5.80095,1.29108 -3.94902,3.01153 -2.60444,12.01412 -2.60444,12.01412 0,0 8.1064,2.75994 12.18068,0.72567 4.0743,-2.03425 7.89136,-12.55071 7.89136,-12.55071 0,0 -6.38968,-1.513 -11.66665,-1.48016 z m -137.92654,5.65054 c -1.93213,0.0222 -3.55345,0.53298 -4.20745,1.84027 -1.74399,3.48613 4.38531,6.27519 7.4573,7.69071 3.07196,1.41549 7.66308,3.04513 9.44107,0.69866 1.77799,-2.3465 -0.44375,-5.67416 -3.4859,-7.6871 -1.90136,-1.25807 -5.98478,-2.57952 -9.20502,-2.54254 z m 80.76224,1.73584 c -3.04777,-0.0289 -6.06442,0.69877 -6.99656,2.63437 -1.65715,3.44113 2.63504,7.01387 6.07511,8.33536 3.44009,1.32148 9.86719,0.81331 11.35253,-2.1266 1.48532,-2.93995 -0.93475,-5.96658 -4.23032,-7.61868 -1.44179,-0.72278 -3.83028,-1.20201 -6.20076,-1.22445 z m -25.55316,5.24357 c -2.10652,-0.0157 -4.12952,0.57733 -5.33262,2.11399 -2.56663,3.27818 0.0719,11.1004 3.87239,12.85323 3.80045,1.75285 8.84031,-1.01832 10.41393,-4.0011 1.57361,-2.98279 0.33904,-6.99926 -2.54161,-9.0556 -1.53036,-1.09245 -4.02469,-1.89274 -6.41209,-1.91052 z m 60.33798,8.06343 c -3.44681,0.008 -6.90567,0.71818 -8.19407,1.91412 -2.57679,2.39188 -1.93918,2.61253 0.0381,5.05269 1.97724,2.4402 10.25483,5.34109 13.64853,3.57255 3.39371,-1.76853 5.10929,-4.98088 2.62918,-8.22729 -1.24004,-1.62322 -4.6749,-2.31938 -8.12172,-2.31207 z"
     inkscape:label="white"
     sodipodi:nodetypes="sssssssssssssssssssssssssscscsssssssssssssssssssssssssssssccscsscsssssssssssssssssssssssssssssssssssssssssssssssssssssssssssssssssssssssssscscsssscsssssssscssssscsssssssssssccssssccssssscsssssssssccssscccsssscscssssssssssssssssscsssscssssssssssssssssssscsssssssssssssscsssssssssssssssssssssssssssssssssssssssssssscsssssssssssssssssssssssssscscsccssssscssssssssssssssssssscsssccscssssssssssscssssscssssssssssssssssscscssssssssssssssssssssssssss" /></svg>
